<svg xmlns="http://www.w3.org/2000/svg" xmlns:xlink="http://www.w3.org/1999/xlink" width="32" height="32" viewBox="0 0 32 32">
  <defs>
    <clipPath id="clip-arrow-ico-surveyhoney_1">
      <rect width="32" height="32"/>
    </clipPath>
  </defs>
  <g id="arrow-ico-surveyhoney_1" data-name="arrow-ico-surveyhoney – 1" clip-path="url(#clip-arrow-ico-surveyhoney_1)">
    <path id="Trazado_372" data-name="Trazado 372" d="M552.047,1028.713l.007-.022a1.468,1.468,0,0,0,0-1.1l-.007-.022a1.523,1.523,0,0,0-.327-.492l-7-7a1.5,1.5,0,0,0-2.121,2.121l4.439,4.44h-20.4a1.5,1.5,0,0,0,0,3h20.4l-4.439,4.439a1.5,1.5,0,1,0,2.121,2.121l7-7A1.523,1.523,0,0,0,552.047,1028.713Z" transform="translate(-522.392 -1011.643)" fill="#fff"/>
  </g>
</svg>
