<svg xmlns="http://www.w3.org/2000/svg" xmlns:xlink="http://www.w3.org/1999/xlink" width="172" height="172" viewBox="0 0 172 172">
  <defs>
    <linearGradient id="linear-gradient" y1="0.5" x2="1" y2="0.5" gradientUnits="objectBoundingBox">
      <stop offset="0" stop-color="#f46818"/>
      <stop offset="1" stop-color="#fbb029"/>
    </linearGradient>
    <clipPath id="clip-bill-ico-surveyhoney">
      <rect width="172" height="172"/>
    </clipPath>
  </defs>
  <g id="bill-ico-surveyhoney" clip-path="url(#clip-bill-ico-surveyhoney)">
    <g id="Grupo_160" data-name="Grupo 160" transform="translate(-772.353 -1906.287)">
      <path id="Unión_2" data-name="Unión 2" d="M100.961,54.932c-34.8-.105-67.66-.315-97.481-1.068A1.945,1.945,0,0,1,1.613,52l-.158-2.9a1.949,1.949,0,0,1,1.923-2.086c29.408.132,62.68.49,98.066.73a1.953,1.953,0,0,1,1.913,2.035,18.029,18.029,0,0,1-.529,3.682,1.92,1.92,0,0,1-1.861,1.469ZM4.11,43.55A3.849,3.849,0,0,1,.417,39.775Q-.1,22.315.024,4.854A3.845,3.845,0,0,1,3.713.991c31.174-.835,63.83-1.164,98.2-.9a3.848,3.848,0,0,1,3.766,3.848c.16,11.79-.143,24.107-.814,36.842a3.838,3.838,0,0,1-3.755,3.68q-11.146.09-22.307.09Q41.537,44.547,4.11,43.55Z" transform="translate(805.17 1977.594)" stroke="rgba(0,0,0,0)" stroke-width="1" fill="url(#linear-gradient)"/>
      <path id="Trazado_303" data-name="Trazado 303" d="M1618.226,65.161a8.951,8.951,0,0,0-8.835-8.779c-41.34-.3-82.259.063-121.628,1.089a8.859,8.859,0,0,0-8.663,8.823c-.1,13.983.06,28.173.487,42.175a8.9,8.9,0,0,0,8.668,8.621c30.87.8,61.944,1.2,92.717,1.2q13.759,0,27.427-.108a8.909,8.909,0,0,0,8.814-8.408C1618.077,93.846,1618.417,78.835,1618.226,65.161Zm-8.415.117q.071,5.109.042,10.468a13.717,13.717,0,0,1-10.566-11q5.019.023,10.041.055A.489.489,0,0,1,1609.811,65.278Zm-121.828.607q5.322-.139,10.684-.26a13.716,13.716,0,0,1-11.175,10.382q-.006-4.835.025-9.649A.481.481,0,0,1,1487.983,65.884Zm.017,42.328q-.172-5.654-.283-11.341a13.708,13.708,0,0,1,11.242,12.053q-5.245-.12-10.486-.249A.488.488,0,0,1,1488,108.213Zm14.582.8a17.312,17.312,0,0,0-14.925-15.8q-.114-6.788-.148-13.573a17.321,17.321,0,0,0,14.855-14.1c25.824-.563,52.239-.849,78.951-.849q7.146,0,14.32.028a17.321,17.321,0,0,0,14.182,14.688q-.093,7.993-.4,16.458a17.321,17.321,0,0,0-15.069,13.979C1563.964,109.963,1533.211,109.682,1502.583,109.011Zm105.75.756q-5.136.041-10.294.059a13.715,13.715,0,0,1,11.235-10.3c-.134,3.226-.285,6.487-.465,9.8A.478.478,0,0,1,1608.333,109.767Z" transform="translate(-690.719 1895.009)" fill="#fff"/>
      <path id="Trazado_304" data-name="Trazado 304" d="M1585.755,79.1a17.287,17.287,0,1,0,17.287,17.287A17.306,17.306,0,0,0,1585.755,79.1Zm0,30.967a13.68,13.68,0,1,1,13.68-13.68A13.7,13.7,0,0,1,1585.755,110.066Z" transform="translate(-726.373 1885.907)" fill="#fff"/>
    </g>
  </g>
</svg>
