<svg xmlns="http://www.w3.org/2000/svg" xmlns:xlink="http://www.w3.org/1999/xlink" width="172" height="92" viewBox="0 0 172 92">
  <defs>
    <clipPath id="clip-capitalone-logo-surveyhoney_8">
      <rect width="172" height="92"/>
    </clipPath>
  </defs>
  <g id="capitalone-logo-surveyhoney_8" data-name="capitalone-logo-surveyhoney – 8" clip-path="url(#clip-capitalone-logo-surveyhoney_8)">
    <g id="Grupo_221" data-name="Grupo 221" transform="translate(11.976 20.045)">
      <path id="Trazado_171" data-name="Trazado 171" d="M173.437,37.042c-6.095,4.32-13.3,8.841-21.031,13.6l-.3.167a.241.241,0,1,0,.268.4l.268-.134c6.564-3.416,14.132-7.5,21.7-11.688.033-.033.067-.033.134-.067A9.342,9.342,0,0,1,173.437,37.042ZM213.356,4.725C203.778-5.857,142.125,3.654,115.9,9.38l-.6.134a.237.237,0,1,0,.067.469l.6-.134c21.7-3.851,66.877-9.209,76.622.435,2.98,2.947,2.244,6.731-1.172,11.185a9.053,9.053,0,0,1,3.784,5.425C208.6,17.953,217.609,9.447,213.356,4.725Z" transform="translate(-76.538 0)" fill="#a7aefa" fill-rule="evenodd"/>
      <g id="Grupo_27" data-name="Grupo 27" transform="translate(0.024 21.097)">
        <path id="Trazado_172" data-name="Trazado 172" d="M100.784,76.252c.134,3.717,2.478,6.765,5.559,6.765,5.961,0,8.473-7.3,8.305-12.19-.134-3.717-2.545-6.765-5.593-6.765-5.157,0-8.439,7.267-8.272,12.19Zm-3.148-.2c-.234-6.363,4.755-12.826,11.989-12.826,4.822,0,8,3.215,8.171,8.138.234,6.7-4.421,12.826-11.989,12.826C100.985,84.189,97.8,80.974,97.636,76.051ZM29.218,74.377a5.361,5.361,0,0,1-1,.268c-.4.1-1.172.234-2.244.4a3.913,3.913,0,0,0-1.574.5,1.059,1.059,0,0,0-.5.77.719.719,0,0,0,.335.8,2.635,2.635,0,0,0,1.44.3,4.716,4.716,0,0,0,1.507-.234,3.918,3.918,0,0,0,1.239-.636,2.124,2.124,0,0,0,.536-.77C28.984,75.549,29.084,75.08,29.218,74.377Zm6.3-3.918c-.033.569-.134,1.105-.268,1.976L34.175,78.4a1.1,1.1,0,0,0,.6,1.239l-.033.234H28.649l-.067-1.507A11.742,11.742,0,0,1,25.668,79.6a11.18,11.18,0,0,1-2.914.368c-1.976,0-3.081-.2-3.851-.871a2.427,2.427,0,0,1-1.139-2.143A3.173,3.173,0,0,1,18.5,75.18a5.009,5.009,0,0,1,1.607-1.139,8.7,8.7,0,0,1,2.445-.67c1.072-.167,2.579-.335,4.588-.5a8.441,8.441,0,0,0,2.009-.435c.435-.167.569-.335.636-.67.1-.6-.067-.971-.9-1.139-2.177-.435-6.3.268-8.406.8l1.139-3.114a56.4,56.4,0,0,1,8.171-.67c4.354-.033,5.76,1.206,5.727,2.813Zm17.615,9.41,2.11-11.922h5.827l-2.11,11.922ZM55.574,65.2c.167-.971,1.708-1.775,3.449-1.775s2.98.8,2.813,1.775-1.741,1.775-3.449,1.775C56.646,66.976,55.373,66.172,55.574,65.2ZM81.762,74.41a5.361,5.361,0,0,1-1,.268c-.4.1-1.172.234-2.277.4a3.914,3.914,0,0,0-1.574.5,1.3,1.3,0,0,0-.5.77.768.768,0,0,0,.335.8,2.689,2.689,0,0,0,1.473.3,4.716,4.716,0,0,0,1.507-.234,3.919,3.919,0,0,0,1.239-.636,1.718,1.718,0,0,0,.5-.77q.1-.352.3-1.407Zm6.262-3.918a15.107,15.107,0,0,1-.3,1.976l-1.038,5.961a1.1,1.1,0,0,0,.6,1.239l-.033.2H81.159l-.033-1.507A12.913,12.913,0,0,1,78.212,79.6a9.916,9.916,0,0,1-2.914.368c-1.976,0-3.081-.2-3.851-.871a2.427,2.427,0,0,1-1.139-2.143,3.173,3.173,0,0,1,.737-1.775,5.009,5.009,0,0,1,1.607-1.139,9.854,9.854,0,0,1,2.445-.7c1.072-.167,2.579-.335,4.588-.5a8.029,8.029,0,0,0,1.976-.435c.435-.167.6-.335.67-.7.1-.6-.1-.971-.9-1.139-2.21-.435-6.3.268-8.406.8l1.139-3.114a56.4,56.4,0,0,1,8.171-.67c4.32.067,5.727,1.306,5.693,2.914Zm-71.063,5.09a21.718,21.718,0,0,1-4.822.536c-2.78,0-4.99-1.373-4.889-3.918.1-1.674,2.076-5.258,7.167-5.258a8.123,8.123,0,0,1,4.521,1.239l.737-4.119a13.63,13.63,0,0,0-5.76-.971C7.25,63.158.853,66.172.083,72.334c-.8,6.262,6.832,7.836,10.214,7.8,1.942,0,3.985-.1,5.894-.268Zm47.32-7.7.4-2.411,6.095-1.34-.636,3.751h2.98l-.569,2.411h-2.88l-1.741,9.578s-5.861-.033-5.894,0l1.741-9.544h-2.21L62,67.913h2.277ZM93.952,79.869H87.991l2.98-16.61,5.794.167ZM45.427,70.76a3.38,3.38,0,0,0-2.076.7,3.044,3.044,0,0,0-1.139,2.043,2.712,2.712,0,0,0,.335,2.244,2.251,2.251,0,0,0,1.808.7,3.406,3.406,0,0,0,1.474-.3,2.943,2.943,0,0,0,1.139-.971,3.64,3.64,0,0,0,.636-1.574,2.359,2.359,0,0,0-.4-2.11,2.185,2.185,0,0,0-1.775-.737ZM34.811,83.988l2.847-15.974h5.124l-.4,2.043a4.7,4.7,0,0,1,2.143-1.507,8.741,8.741,0,0,1,3.315-.7,5.906,5.906,0,0,1,3.148.6,4.3,4.3,0,0,1,2.076,2.277,6.136,6.136,0,0,1,.268,3.248,6.964,6.964,0,0,1-2.88,4.655,7.591,7.591,0,0,1-4.956,1.44,7.093,7.093,0,0,1-1.808-.2,4.269,4.269,0,0,1-1.172-.469,6.535,6.535,0,0,1-.971-.871L40.6,83.988ZM140.568,72.233c-.033-.971-.5-1.607-1.507-1.607-2.378,0-4.923,4.688-5.358,6.564C137.588,77.19,140.635,74.845,140.568,72.233Zm.5,7.334.469.3a7.325,7.325,0,0,1-6.329,4.287,4.137,4.137,0,0,1-4.253-4.354c-.167-5.09,4.588-9.846,8.506-9.846,1.674,0,3.248.737,3.315,2.545.134,4.052-5.559,5.291-9.31,5.392a4.057,4.057,0,0,0-.134,1.507,3,3,0,0,0,3.181,3.114A6.338,6.338,0,0,0,141.071,79.567Z" transform="translate(-0.024 -63.086)" fill="#737efa" fill-rule="evenodd"/>
        <path id="Trazado_173" data-name="Trazado 173" d="M350.668,85.81a11.273,11.273,0,0,1,1.34-.134c.435,0,.837.067.837.5,0,.268-.435,2.076-.536,2.478l-.9,4.019c-.368,1.641-.77,3.349-1.105,4.722h2.344l1.306-6.329c4.019-4.153,5.559-5.526,6.5-5.526a.685.685,0,0,1,.737.737,11.485,11.485,0,0,1-.6,2.88l-1.34,4.621a9.207,9.207,0,0,0-.5,2.646,1.415,1.415,0,0,0,1.574,1.474c1.708,0,2.947-1.775,4.019-3.516l-.3-.569c-.435.7-1.44,2.244-2.244,2.244-.268,0-.5-.167-.5-.6a6.211,6.211,0,0,1,.368-1.875l1.474-5.425a11.74,11.74,0,0,0,.569-2.98,1.389,1.389,0,0,0-1.54-1.474c-1.54,0-3.583,1.105-7.9,6.095h-.067l.536-2.411c.3-1.34.569-2.713.871-3.65a41.725,41.725,0,0,1-4.956,1.407l.033.67Z" transform="translate(-232.997 -76.797)" fill="#737efa" fill-rule="evenodd"/>
      </g>
      <path id="Trazado_174" data-name="Trazado 174" d="M427.4,72.976a2.072,2.072,0,0,1,2.11-2.076,2.077,2.077,0,1,1-2.11,2.076Zm2.11,1.741a1.725,1.725,0,1,0-1.674-1.741A1.636,1.636,0,0,0,429.51,74.718Zm-.469-.536h-.368V71.8h.9c.569,0,.837.2.837.67,0,.435-.268.6-.636.67l.67,1.038h-.4l-.636-1.038h-.4v1.038Zm.435-1.34c.3,0,.569-.033.569-.4,0-.3-.268-.335-.536-.335h-.5v.737Z" transform="translate(-284.253 -47.187)" fill="#b8b7c1" fill-rule="evenodd"/>
    </g>
  </g>
</svg>
