<svg xmlns="http://www.w3.org/2000/svg" xmlns:xlink="http://www.w3.org/1999/xlink" width="172" height="92" viewBox="0 0 172 92">
  <defs>
    <clipPath id="clip-danone-logo-surveyhoney">
      <rect width="172" height="92"/>
    </clipPath>
  </defs>
  <g id="danone-logo-surveyhoney" clip-path="url(#clip-danone-logo-surveyhoney)">
    <g id="Grupo_220" data-name="Grupo 220" transform="translate(-174.956 -627.675)">
      <path id="Trazado_192" data-name="Trazado 192" d="M310.434,696.562c1.572-1.093.234-3.026-1.542-2.159-24.758,12.087-49.457,12.192-74.593.18-4-1.912-3.584,1.159-1.937,2.234,28.3,18.469,53.994,16.493,78.071-.255" transform="translate(-10.848 -16.06)" fill="#a7aefa" fill-rule="evenodd"/>
      <path id="Trazado_193" data-name="Trazado 193" d="M208.809,657.682s.7-.034,1.807-.034a7.9,7.9,0,0,1,5.421,1.941,6.468,6.468,0,0,1,1.807,5.087,6.3,6.3,0,0,1-3.514,5.689,10.05,10.05,0,0,1-5.555.837Zm25.787,8.635a29.341,29.341,0,0,0-3.732-8.234,29.994,29.994,0,0,0-3.733,8.234ZM228.823,654.3h4.284c4.16,4.6,6.706,11.3,7.564,20.181h-4.652q-.181-2.315-.565-4.451h-9.184a43.942,43.942,0,0,0-.559,4.451h-4.518C222.242,665.427,224.738,658.627,228.823,654.3Zm12.617,20.181h4.418V660.727a30.907,30.907,0,0,1,9,13.756h3.949V654.3h-4.418v9.738a43.289,43.289,0,0,0-9.236-9.738H241.44Zm39.732,0h4.418V660.727a30.91,30.91,0,0,1,9,13.756h3.949V654.3h-4.418v9.738a43.28,43.28,0,0,0-9.238-9.738h-3.715Zm-11.2-20.808c5.626,0,10.188,4.822,10.188,10.769s-4.562,10.769-10.188,10.769-10.187-4.822-10.187-10.769S264.346,653.675,269.971,653.675Zm0,3.992c3.352,0,6.072,3.035,6.072,6.778s-2.719,6.778-6.072,6.778-6.07-3.036-6.07-6.778S266.619,657.667,269.971,657.667Zm44.129,4.9H304.092a5.542,5.542,0,0,1,5.189-4.987C311.913,657.594,313.978,659.412,314.1,662.569Zm3.782,8.1-4.25-1.038a5.506,5.506,0,0,1-4.117,1.673c-3.284-.06-4.916-2-5.522-5.188h14.058a15.245,15.245,0,0,0,.2-3.481,10.8,10.8,0,0,0-2.276-6.224c-1.421-1.794-3.67-2.734-6.693-2.711a9.264,9.264,0,0,0-7,2.946c-1.726,1.833-2.759,4.628-2.711,8.266.046,3.456.926,6.028,3.079,8.133a8.371,8.371,0,0,0,6.158,2.242A10.819,10.819,0,0,0,317.881,670.668Zm-113.925-16.5s.469,1.272.469,5.891-.066,7.2-.066,10.141-.168,4.552-.168,4.552a26.2,26.2,0,0,0,5.321.469,14.388,14.388,0,0,0,8.769-2.845,10.355,10.355,0,0,0,3.815-8.534c0-4.384-1.874-6.794-4.35-8.367s-6.259-1.874-9.171-1.741A43.852,43.852,0,0,0,203.956,654.168Z" fill="#737efa" fill-rule="evenodd"/>
    </g>
  </g>
</svg>
