<svg xmlns="http://www.w3.org/2000/svg" xmlns:xlink="http://www.w3.org/1999/xlink" width="32" height="32" viewBox="0 0 32 32">
  <defs>
    <clipPath id="clip-dollar-ico-surveyhoney">
      <rect width="32" height="32"/>
    </clipPath>
  </defs>
  <g id="dollar-ico-surveyhoney" clip-path="url(#clip-dollar-ico-surveyhoney)">
    <path id="Trazado_308" data-name="Trazado 308" d="M164.958,406.779c0-4.287-3.621-5.846-6.53-7.1-3.019-1.3-4.341-2.048-4.341-3.773a3.626,3.626,0,0,1,6.19-2.564,1.81,1.81,0,1,0,2.559-2.559,7.192,7.192,0,0,0-3.313-1.887v-.734a1.81,1.81,0,1,0-3.62,0v.736a7.252,7.252,0,0,0-5.436,7.008c0,4.288,3.621,5.846,6.53,7.1,3.019,1.3,4.341,2.048,4.341,3.773a3.626,3.626,0,1,1-7.251,0,1.81,1.81,0,0,0-3.62,0,7.232,7.232,0,0,0,5.436,7.01v.734a1.81,1.81,0,1,0,3.62,0v-.736A7.253,7.253,0,0,0,164.958,406.779Z" transform="translate(-140.749 -385.131)" fill="#fff"/>
  </g>
</svg>
