<svg xmlns="http://www.w3.org/2000/svg" xmlns:xlink="http://www.w3.org/1999/xlink" width="32" height="32" viewBox="0 0 32 32">
  <defs>
    <clipPath id="clip-gl-ico-surveyhoney">
      <rect width="32" height="32"/>
    </clipPath>
  </defs>
  <g id="gl-ico-surveyhoney" clip-path="url(#clip-gl-ico-surveyhoney)">
    <g id="Grupo_223" data-name="Grupo 223" transform="translate(3 2)">
      <path id="Unión_1" data-name="Unión 1" d="M1.494,20.284A14,14,0,0,1,14,0a13.448,13.448,0,0,1,9.365,3.64L19.412,7.5A7.759,7.759,0,0,0,14,5.413,8.463,8.463,0,0,0,6.02,11.228v0A9.058,9.058,0,0,0,5.569,14a8.621,8.621,0,0,0,.466,2.768A8.427,8.427,0,0,0,14,22.586a8.283,8.283,0,0,0,4.853-1.4h0a6.847,6.847,0,0,0,2.861-4.542H14v-5.2H27.143a11.976,11.976,0,0,1,.3,2.862,13.69,13.69,0,0,1-4.169,10.3A13.344,13.344,0,0,1,14,28,13.99,13.99,0,0,1,1.494,20.284Z" transform="translate(0 0)" fill="#fff" stroke="rgba(0,0,0,0)" stroke-width="1"/>
    </g>
  </g>
</svg>
