<svg xmlns="http://www.w3.org/2000/svg" xmlns:xlink="http://www.w3.org/1999/xlink" width="172" height="92" viewBox="0 0 172 92">
  <defs>
    <clipPath id="clip-harvard-logo-surveyhoney">
      <rect width="172" height="92"/>
    </clipPath>
  </defs>
  <g id="harvard-logo-surveyhoney" clip-path="url(#clip-harvard-logo-surveyhoney)">
    <g id="Grupo_26" data-name="Grupo 26" transform="translate(-307.344 -774.168)">
      <path id="Trazado_97" data-name="Trazado 97" d="M341.7,145.514c0-.341-.222-.593-.676-.691v-.22c.251,0,1.088.034,1.323.034.2,0,1.014-.034,1.266-.034v.22a.687.687,0,0,0-.642.691v4.324c0,1.369.752,2.143,2.325,2.143,1.355,0,2.41-.608,2.41-2.042V145.5c0-.321-.2-.576-.709-.674v-.22c.185,0,.877.034,1.113.034.2,0,.928-.034,1.114-.034v.22c-.49.117-.708.336-.708.674v4.2c0,1.887-1.1,2.971-3.467,2.971-2.205,0-3.348-1-3.348-2.775Z" transform="translate(36.492 682.395)" fill="#737efa"/>
      <path id="Trazado_98" data-name="Trazado 98" d="M391.555,152.33c.513-.1.716-.356.716-.674V145.68a.823.823,0,0,0-.73-.861v-.22c.26.019.7.031.92.031a6.633,6.633,0,0,0,.73-.031l5.184,6.095v-5.2c0-.32-.2-.575-.709-.675v-.22c.186,0,.853.034,1.09.034.206,0,.921-.034,1.109-.034v.22c-.494.117-.733.338-.733.675v7.175h-.312a2.7,2.7,0,0,1-1.134-.878l-4.638-5.4v5.267c0,.32.185.574.691.674v.221c-.186,0-.853-.035-1.09-.035-.2,0-.9.035-1.093.035Z" transform="translate(-3.903 682.398)" fill="#737efa"/>
      <path id="Trazado_99" data-name="Trazado 99" d="M595.7,150.2h.219a1.855,1.855,0,0,0,.73,1.089,2.666,2.666,0,0,0,1.43.389c1.043,0,1.7-.517,1.7-1.334,0-.846-.847-1.286-1.861-1.793-.755-.377-2.237-1-2.237-2.434,0-1.335,1.018-2.166,2.647-2.166,1.075,0,1.579.263,2.3.229l-.014,1.62H600.4a1.97,1.97,0,0,0-2.106-1.287c-1.062,0-1.459.607-1.459,1.224,0,.884.865,1.33,1.845,1.767,1.1.491,2.3,1.111,2.3,2.492,0,1.308-1.022,2.254-2.892,2.254a11.945,11.945,0,0,1-2.364-.389Z" transform="translate(-167.144 682.918)" fill="#737efa"/>
      <path id="Trazado_100" data-name="Trazado 100" d="M695.59,148.938v2.705a.742.742,0,0,0,.666.69v.221c-.257,0-1.1-.035-1.341-.035-.2,0-1.01.035-1.3.035v-.221a.762.762,0,0,0,.686-.69v-2.586m.082.208-2.111-3.386a2.157,2.157,0,0,0-1.038-1.056V144.6c.289,0,1.07.034,1.292.034.2,0,1.044-.034,1.348-.034v.219c-.27.048-.4.183-.4.387a1.375,1.375,0,0,0,.245.611l1.556,2.58,1.5-2.579a1.607,1.607,0,0,0,.258-.684c0-.154-.109-.282-.364-.315V144.6c.254,0,.787.034.957.034s.783-.034,1.035-.034v.2a2.874,2.874,0,0,0-1.286,1.329l-1.919,3.207" transform="translate(-243.549 682.395)" fill="#737efa"/>
      <path id="Trazado_101" data-name="Trazado 101" d="M511.2,144.268h4.949a1.721,1.721,0,0,0,.574-.084h.221l-.035,1.608h-.219a1.17,1.17,0,0,0-1.342-.911H513.2v2.8h1.656a3.73,3.73,0,0,0,.661-.05.725.725,0,0,0,.611-.606h.221c-.016.242-.016.8-.016.959s.016.747.016,1.01h-.221a.837.837,0,0,0-.611-.646,3.343,3.343,0,0,0-.661-.061H513.2v3.287h2.337a1.43,1.43,0,0,0,1.571-1.027l.219.051-.219,1.652a20.353,20.353,0,0,0-2.076-.067h-2.47c-.238,0-1.111.035-1.365.035V152c.446-.085.706-.305.706-.733v-6.079c0-.377-.2-.612-.7-.7Z" transform="translate(-99.581 682.73)" fill="#737efa"/>
      <path id="Trazado_102" data-name="Trazado 102" d="M445.239,145.6c0-.408-.243-.632-.72-.735v-.218c.266,0,1.125.033,1.375.033.21,0,1.093-.033,1.361-.033v.218c-.474.1-.723.306-.723.735v6.037c0,.408.244.63.723.731v.221c-.268,0-1.115-.035-1.361-.035-.213,0-1.109.035-1.375.035v-.221c.487-.091.721-.3.721-.731Z" transform="translate(-46.265 682.359)" fill="#737efa"/>
      <path id="Trazado_103" data-name="Trazado 103" d="M632.622,145.6c0-.408-.246-.632-.722-.735v-.218c.266,0,1.125.033,1.374.033.211,0,1.094-.033,1.362-.033v.218c-.474.1-.722.306-.722.735v6.037c0,.408.244.63.722.731v.221c-.266,0-1.112-.035-1.362-.035-.21,0-1.108.035-1.374.035v-.221c.486-.091.722-.3.722-.731Z" transform="translate(-196.104 682.359)" fill="#737efa"/>
      <path id="Trazado_104" data-name="Trazado 104" d="M655.063,144.432c-2.713,0-3.147-.05-3.7-.085l0,1.638h.221a1.039,1.039,0,0,1,1.131-.9h1.7V151.4c0,.426-.233.64-.722.731v.221c.268,0,1.172-.035,1.381-.035.249,0,1.1.035,1.362.035v-.221c-.48-.1-.723-.323-.723-.731V145.09h1.689a1.044,1.044,0,0,1,1.134.9h.219l0-1.638c-.551.034-.985.085-3.7.085" transform="translate(-211.666 682.599)" fill="#737efa"/>
      <path id="Trazado_105" data-name="Trazado 105" d="M553.923,148.174a8.142,8.142,0,0,0,.993.05c1.489,0,1.958-.856,1.958-1.614,0-1.072-.716-1.737-2.019-1.737a5.749,5.749,0,0,0-.932.085Zm0,3.241c0,.408.259.629.738.731v.221c-.265,0-1.133-.035-1.381-.035-.212,0-1.06.035-1.327.035v-.221c.444-.085.706-.3.706-.731v-6.1c0-.375-.2-.611-.7-.7V144.4c.265,0,1.1.033,1.342.033.388,0,1.492-.065,1.927-.065,1.9,0,2.961.786,2.961,2.135,0,1.059-.788,1.776-2,2.069a2.426,2.426,0,0,1,.553.482c.335.4,1.241,1.7,1.617,2.149s.855.964,1.37.987v.178a5.056,5.056,0,0,1-.945.1,2.009,2.009,0,0,1-1.662-.834c-.433-.527-1.168-1.622-1.6-2.174a1.808,1.808,0,0,0-1.226-.728c-.118-.02-.231-.037-.365-.053Z" transform="translate(-132.175 682.582)" fill="#737efa"/>
      <path id="Trazado_106" data-name="Trazado 106" d="M464.13,145.588a1.232,1.232,0,0,0-.893-.765V144.6c.282,0,1.26.035,1.475.035.2,0,1.052-.035,1.342-.035v.218c-.257.049-.551.192-.551.455a2.852,2.852,0,0,0,.333.928l2.049,4.662,1.939-4.67a2.749,2.749,0,0,0,.264-.892c0-.247-.227-.418-.549-.484V144.6c.257,0,.889.035,1.086.035.179,0,.921-.035,1.2-.035v.224a1.505,1.505,0,0,0-1.05,1.028l-2.854,6.729h-.646Z" transform="translate(-61.234 682.398)" fill="#737efa"/>
      <path id="Trazado_107" data-name="Trazado 107" d="M497.456,36.144a2.344,2.344,0,0,0-1.693-1.449v-.424c.533,0,2.3.064,2.711.064.375,0,2.09-.064,2.637-.064v.413c-.485.095-1.042.365-1.042.865A5.555,5.555,0,0,0,500.7,37.3l3.886,8.834,3.677-8.849a5.3,5.3,0,0,0,.5-1.688c0-.47-.435-.79-1.045-.916v-.413c.486,0,1.669.064,2.045.064.342,0,1.746-.064,2.281-.064v.4a2.88,2.88,0,0,0-1.988,1.97L504.647,49.4h-1.223Z" transform="translate(-87.243 770.621)" fill="#737efa"/>
      <path id="Trazado_108" data-name="Trazado 108" d="M243.051,48.79c.706-.161,1.2-.482,1.2-1.282V35.815c0-.768-.462-1.086-1.2-1.279v-.415c.371,0,1.967.063,2.356.063.447,0,2.121-.063,2.489-.063v.415c-.705.16-1.228.48-1.228,1.279V40.7h8.711V35.815c0-.8-.464-1.119-1.2-1.279v-.415c.368,0,2.012.063,2.458.063.386,0,2.02-.063,2.384-.063v.415c-.706.16-1.229.48-1.229,1.279V47.509c0,.768.491,1.09,1.229,1.282v.383c-.364,0-2-.032-2.384-.032-.447,0-2.09.032-2.458.032V48.79c.7-.161,1.2-.482,1.2-1.282V41.982h-8.711v5.526c0,.8.49,1.09,1.228,1.282v.383c-.368,0-2.042-.032-2.489-.032-.389,0-1.985.032-2.356.032Z" transform="translate(114.836 770.741)" fill="#737efa"/>
      <path id="Trazado_109" data-name="Trazado 109" d="M749.782,47.632a15.86,15.86,0,0,0,2.349.161c4.5,0,6.845-2.709,6.845-6.488,0-3.918-2.472-6.674-6.681-6.674a18.85,18.85,0,0,0-2.513.158Zm-3.815.771c.9-.161,1.4-.52,1.4-1.345V35.427c0-.8-.491-1.119-1.365-1.279v-.415c.5,0,2.142.063,2.6.063.733,0,2.776-.16,4.366-.16,5.359,0,8.612,2.993,8.612,7.543,0,4.423-3.385,7.7-8.911,7.7-1.593,0-3.483-.126-4.222-.126-.449,0-1.977.064-2.479.064Z" transform="translate(-287.316 771.128)" fill="#737efa"/>
      <path id="Trazado_110" data-name="Trazado 110" d="M428.343,41.03a15.864,15.864,0,0,0,1.881.095c2.818,0,3.7-1.622,3.7-3.055,0-2.035-1.355-3.291-3.824-3.291a11.161,11.161,0,0,0-1.76.158Zm0,6.133c0,.775.491,1.2,1.394,1.388v.415c-.5,0-2.143-.064-2.614-.064-.4,0-2.006.064-2.509.064V48.55c.839-.161,1.333-.579,1.333-1.388V35.616c0-.71-.384-1.16-1.331-1.32v-.415c.5,0,2.092.063,2.538.063.737,0,2.826-.123,3.651-.123,3.6,0,5.61,1.491,5.61,4.04,0,2.01-1.5,3.362-3.794,3.921a4.594,4.594,0,0,1,1.045.915c.636.748,2.391,3.26,3.1,4.12s1.62,1.824,2.593,1.868v.339a9.655,9.655,0,0,1-1.783.187,3.8,3.8,0,0,1-3.154-1.58c-.818-1-2.249-3.119-3.069-4.166a3.415,3.415,0,0,0-2.315-1.379c-.228-.039-.443-.069-.7-.1Z" transform="translate(-30.349 770.981)" fill="#737efa"/>
      <path id="Trazado_111" data-name="Trazado 111" d="M665.419,41.03a15.977,15.977,0,0,0,1.883.095c2.819,0,3.7-1.622,3.7-3.055,0-2.035-1.356-3.291-3.82-3.291a11.208,11.208,0,0,0-1.765.158Zm0,6.133c0,.775.493,1.2,1.4,1.388v.415c-.5,0-2.14-.064-2.611-.064-.405,0-2.008.064-2.512.064V48.55c.837-.161,1.332-.579,1.332-1.388V35.616c0-.71-.388-1.16-1.33-1.32v-.415c.505,0,2.089.063,2.538.063.739,0,2.827-.123,3.646-.123,3.61,0,5.61,1.491,5.61,4.04,0,2.01-1.493,3.362-3.792,3.921a4.507,4.507,0,0,1,1.044.915c.642.748,2.4,3.26,3.1,4.12s1.622,1.824,2.59,1.868v.339a9.564,9.564,0,0,1-1.775.187,3.8,3.8,0,0,1-3.158-1.58c-.818-1-2.245-3.119-3.072-4.166a3.411,3.411,0,0,0-2.311-1.379c-.232-.039-.444-.069-.7-.1Z" transform="translate(-219.927 770.981)" fill="#737efa"/>
      <path id="Trazado_112" data-name="Trazado 112" d="M343.8,42.85l-2.4-5.59-2.234,5.59ZM334.2,48.484a2.544,2.544,0,0,0,1.825-1.667l4.824-11.608a12.8,12.8,0,0,0,.444-1.467h1.35a13.71,13.71,0,0,0,.442,1.471l5.1,11.637a2.453,2.453,0,0,0,1.771,1.635l0,.387c-.552,0-2.268-.032-2.658-.032s-2.028.032-2.579.032l0-.387c.742-.182.977-.56.977-.925a2.786,2.786,0,0,0-.284-1.024l-1.1-2.5h-5.618l-1,2.514a3.112,3.112,0,0,0-.246.959c0,.419.219.754,1.061.977l0,.387c-.5,0-1.816-.032-2.125-.032l-2.182.032Z" transform="translate(41.953 771.044)" fill="#737efa"/>
      <path id="Trazado_113" data-name="Trazado 113" d="M582.355,42.85l-2.4-5.59-2.233,5.59Zm-9.606,5.635a2.54,2.54,0,0,0,1.824-1.667L579.4,35.209a12.977,12.977,0,0,0,.447-1.467h1.35a13.613,13.613,0,0,0,.439,1.471l5.1,11.637a2.451,2.451,0,0,0,1.768,1.635l0,.387c-.55,0-2.268-.032-2.661-.032s-2.023.032-2.575.032v-.387c.747-.182.978-.56.978-.925a2.827,2.827,0,0,0-.279-1.024l-1.1-2.5h-5.618l-1,2.514a3.11,3.11,0,0,0-.245.959c0,.419.219.754,1.061.977v.387c-.5,0-1.816-.032-2.126-.032l-2.182.032Z" transform="translate(-148.803 771.044)" fill="#737efa"/>
      <path id="Trazado_114" data-name="Trazado 114" d="M20.737,10.695H54.376V23.4c0,5.822-2.167,18.17-16.694,27.359,0,0-15.74-6.574-16.945-27.359Z" transform="translate(292.607 789.473)" fill="#a7aefa"/>
      <path id="Trazado_116" data-name="Trazado 116" d="M114.394,43.462s-.3.956-1.634-.026l-4.579-.111a.5.5,0,0,1-.681-.434,10.316,10.316,0,0,0,.054-1.363s.027-.354-.574-.354c0,0-.925.109-.953-.71,0,0-.162-.872,1.118-.843,0,0,.409.19.436-.329,0,0-.054-3.545-.027-3.815,0,0,.11-.326-.518-.381,0,0-.9.19-1.008-.408,0,0-.054-.9.547-.955,0,0,.735.056.871-.136,0,0,.164.108.136-.543l.028-1.12s.079-.3.543-.27a3.812,3.812,0,0,0,.956-.029,3.51,3.51,0,0,0,.244-.355s.437-.026.518.083c0,0,.655.436,3.135.271,0,0,.382,0,.462.11,0,0,.465.354.737-.027a8.8,8.8,0,0,1,1.635-.054,2.794,2.794,0,0,0,2.262-.41l.3.055s.381.625.654.436c0,0,.818-.081.954.082a2.321,2.321,0,0,1,.136,1.473s-.162.462.628.462c0,0,.9-.164.79.68,0,0,.245.955-1.253.819a.861.861,0,0,0-.165.463s-.027,3.106-.054,3.462c0,0-.026.491.626.462,0,0,.873-.056.9.735,0,0,.108,1.036-1.147.844,0,0-.381.056-.438.3l-.051,1.363s.026.681-.736.517c-.109,0-4.251.084-4.607-.025,0,0-.193-.027-.246.08" transform="translate(224.412 773.035)" fill="#fff"/>
      <path id="Trazado_117" data-name="Trazado 117" d="M66.226,111.749a.508.508,0,0,0,.245-.215,2.346,2.346,0,0,0,.654-.137l1.8.137a5.034,5.034,0,0,0,2.534-.413,1.394,1.394,0,0,1,.465.083s.379.083.488.244l1.037-.027s.6.193.544.575v.489s-.11.982.163,1.037h.792s.655.3.572.68a.643.643,0,0,1-.544.654,3.333,3.333,0,0,1-.764.137,1.171,1.171,0,0,0-.22.544l-.08,3.571s-.056.381.518.327c0,0,.843-.082,1.09.383,0,0,.218.789-.218.925l-.326.162-.71.113s-.3.025-.326.542v.953s.028.656-.491.656l-.763.055a.63.63,0,0,1-.571.052s-4.634.084-4.8.028l-.546.111s-.6.545-1.09.134l-.381-.3a1.308,1.308,0,0,1-.38.027c-.11-.027-5.125.056-5.125.056s-1.063.111-1.144-.246a12.848,12.848,0,0,1-.082-1.555s0-.407-.245-.433c0,0-1.063-.055-1.091-.165,0,0-.573-.407-.41-.815a.947.947,0,0,1,.764-.6s.872.138.872-.108a1.478,1.478,0,0,0,.056-.435s.054-3.245.026-3.463c0,0,.081-.409-.273-.409a.877.877,0,0,1-.626-.055s-.655.027-.791-.491a.8.8,0,0,1,.053-.6,1,1,0,0,1,1.173-.407s.491.137.545-.216l-.026-1.311s-.111-.353.572-.543c0,0,.872.244,1.144-.191,0,0,.3-.6.543-.193a2.759,2.759,0,0,0,1.937.439,19.31,19.31,0,0,1,2.508-.086s.6.086.763.274Z" transform="translate(263.775 709.303)" fill="#fff"/>
      <path id="Trazado_118" data-name="Trazado 118" d="M33.466,43.465s-.3.956-1.636-.027l-4.579-.11a.5.5,0,0,1-.682-.435,10.144,10.144,0,0,0,.053-1.362s.029-.356-.571-.356c0,0-.925.111-.952-.707,0,0-.165-.875,1.116-.845,0,0,.407.19.436-.328,0,0-.055-3.543-.029-3.817,0,0,.111-.324-.516-.379,0,0-.9.189-1.007-.411,0,0-.056-.9.543-.954,0,0,.736.056.873-.133,0,0,.164.105.136-.549l.027-1.116s.082-.3.543-.272a3.884,3.884,0,0,0,.957-.028,3.032,3.032,0,0,0,.242-.355s.439-.026.52.081c0,0,.653.439,3.136.274,0,0,.379,0,.462.11,0,0,.463.354.735-.028a9.015,9.015,0,0,1,1.637-.054,2.793,2.793,0,0,0,2.261-.408l.3.056s.381.625.656.434c0,0,.816-.082.954.082a2.306,2.306,0,0,1,.135,1.473s-.162.463.628.463c0,0,.9-.162.791.679,0,0,.246.955-1.253.819a.865.865,0,0,0-.165.463s-.027,3.106-.053,3.462c0,0-.026.487.627.462,0,0,.872-.057.9.736,0,0,.109,1.035-1.144.843,0,0-.382.057-.438.3l-.053,1.362s.027.682-.738.519c-.109,0-4.249.081-4.605-.026,0,0-.19-.027-.244.08" transform="translate(289.125 773.032)" fill="#fff"/>
      <path id="Trazado_119" data-name="Trazado 119" d="M114.394,43.462s-.3.956-1.634-.026l-4.579-.111a.5.5,0,0,1-.681-.434,10.316,10.316,0,0,0,.054-1.363s.027-.354-.574-.354c0,0-.925.109-.953-.71,0,0-.162-.872,1.118-.843,0,0,.409.19.436-.329,0,0-.054-3.545-.027-3.815,0,0,.11-.326-.518-.381,0,0-.9.19-1.008-.408,0,0-.054-.9.547-.955,0,0,.735.056.871-.136,0,0,.164.108.136-.543l.028-1.12s.079-.3.543-.27a3.812,3.812,0,0,0,.956-.029,3.51,3.51,0,0,0,.244-.355s.437-.026.518.083c0,0,.655.436,3.135.271,0,0,.382,0,.462.11,0,0,.465.354.737-.027a8.8,8.8,0,0,1,1.635-.054,2.794,2.794,0,0,0,2.262-.41l.3.055s.381.625.654.436c0,0,.818-.081.954.082a2.321,2.321,0,0,1,.136,1.473s-.162.462.628.462c0,0,.9-.164.79.68,0,0,.245.955-1.253.819a.861.861,0,0,0-.165.463s-.027,3.106-.054,3.462c0,0-.026.491.626.462,0,0,.873-.056.9.735,0,0,.108,1.036-1.147.844,0,0-.381.056-.438.3l-.051,1.363s.026.681-.736.517c-.109,0-4.251.084-4.607-.025,0,0-.193-.027-.246.08" transform="translate(224.412 773.035)" fill="#b8b7c1"/>
      <path id="Trazado_120" data-name="Trazado 120" d="M114.39,43.459s-.3.956-1.634-.026l-4.58-.111a.5.5,0,0,1-.681-.435,10.177,10.177,0,0,0,.054-1.363s.027-.354-.573-.354c0,0-.926.11-.954-.709,0,0-.162-.872,1.118-.844,0,0,.409.19.436-.328,0,0-.054-3.545-.027-3.816,0,0,.111-.326-.518-.381,0,0-.9.19-1.009-.408,0,0-.053-.9.547-.955,0,0,.735.055.871-.136,0,0,.165.108.136-.544l.029-1.12s.078-.3.544-.27a3.8,3.8,0,0,0,.955-.029,3.577,3.577,0,0,0,.245-.354s.436-.027.518.082c0,0,.654.436,3.135.271,0,0,.382,0,.462.11,0,0,.465.354.737-.026a8.8,8.8,0,0,1,1.635-.054,2.8,2.8,0,0,0,2.263-.411l.3.054s.381.626.653.437c0,0,.818-.08.954.082a2.319,2.319,0,0,1,.137,1.473s-.163.463.628.463c0,0,.9-.164.789.679,0,0,.245.955-1.253.819a.866.866,0,0,0-.164.464s-.026,3.106-.054,3.461c0,0-.027.491.626.464,0,0,.874-.056.9.734,0,0,.107,1.036-1.147.844,0,0-.381.057-.438.3l-.052,1.363s.026.682-.735.518c-.109,0-4.252.083-4.608-.026C114.636,43.378,114.443,43.352,114.39,43.459Z" transform="translate(224.416 773.039)" fill="#737efa"/>
      <path id="Trazado_121" data-name="Trazado 121" d="M119.61,36.136s.054.546.054.684-.08,7.875-.08,7.875a.943.943,0,0,1-.435.9s-.138.053-.164-.328l.053-8.175s.055-1.011.572-.957" transform="translate(214.045 769.131)" fill="#fff"/>
      <path id="Trazado_122" data-name="Trazado 122" d="M119.6,36.131s.053.546.053.684-.08,7.877-.08,7.877a.943.943,0,0,1-.436.9s-.138.054-.165-.327l.055-8.176S119.085,36.077,119.6,36.131Z" transform="translate(214.051 769.135)" fill="none" stroke="#050304" stroke-width="0.012"/>
      <path id="Trazado_123" data-name="Trazado 123" d="M109.709,44.764s.054-7.686.028-7.823.026.112.026.112a4.247,4.247,0,0,1,.273-1.884s-.111-.461-.737.111l-.027,1.116s0,.628-.571.6a1.511,1.511,0,0,0-.955.272s-.163.6.463.493c0,0,.982,0,1.037.406l-.055,4.117a.5.5,0,0,1-.544.685s-.93-.058-.9.514c0,0,.192.49.982.328a.656.656,0,0,1,.544.655V45.5s-.055.411.491.437h4.252s.217.026.217-.246c0,0-.026-.218-.353-.218l-3.543-.055s-.573.192-.627-.654" transform="translate(223.047 770.043)" fill="#fff"/>
      <path id="Trazado_124" data-name="Trazado 124" d="M121.651,82.248s-.11.381.3.3h2.808l.762.165s.79-.193,0-.628c0,0-2.507.025-2.724-.028,0,0-.518-.135-.63-.163,0,0-.27-.109-.514.352" transform="translate(211.923 732.547)" fill="#fff"/>
      <path id="Trazado_125" data-name="Trazado 125" d="M121.646,82.244s-.11.382.3.3h2.809l.762.165s.791-.194,0-.63c0,0-2.507.025-2.725-.027,0,0-.518-.136-.629-.164C122.161,81.891,121.891,81.783,121.646,82.244Z" transform="translate(211.927 732.55)" fill="none" stroke="#050304" stroke-width="0.012"/>
      <path id="Trazado_126" data-name="Trazado 126" d="M142.995,85.559s-.518,0-.491.683a.584.584,0,0,0,.6.516.544.544,0,0,0,.437-.625s-.3-.681-.546-.573" transform="translate(195.238 729.618)" fill="#fff"/>
      <path id="Trazado_127" data-name="Trazado 127" d="M146.842,82.693s.245-.271.41-.271c0,0,2.725.244,3.185-.082,0,0,.411-.081.521,0,0,0,.408.327.408.518,0,0-.027.247-.518.107,0,0-3.08.03-3.244.03,0,0-.847.189-.763-.3" transform="translate(191.774 732.213)" fill="#fff"/>
      <path id="Trazado_128" data-name="Trazado 128" d="M146.838,82.689s.245-.272.41-.272c0,0,2.726.244,3.187-.082,0,0,.411-.081.521,0,0,0,.408.326.408.519,0,0-.026.247-.518.107,0,0-3.082.03-3.245.03C147.6,82.991,146.753,83.18,146.838,82.689Z" transform="translate(191.777 732.216)" fill="none" stroke="#050304" stroke-width="0.012"/>
      <path id="Trazado_129" data-name="Trazado 129" d="M148.631,45.979s0-.22.382-.22l3.814-.027s.356.191.356-.462c0,0,.14-2.971.152-6.243,0-.974.049-2,.014-2.942,0,0-.085-.41-.195-.493,0,0,0-.435.464-.271,0,0,.409.027.3.656l.028.95s-.082.412.652.3c0,0,.735.111.764.381,0,0,.218.548-.653.492h-.63a.45.45,0,0,0-.19.491l-.081,3.953s-.055.68.6.655c0,0,.68-.028.817.19,0,0,.466.681-.544.626a2.04,2.04,0,0,0-.763.082,4.178,4.178,0,0,0-.191,1.418s.056.764-.518.679c0,0-3.79.054-4.143-.026,0,0-.381.111-.436-.191" transform="translate(190.338 769.81)" fill="#fff"/>
      <path id="Trazado_130" data-name="Trazado 130" d="M123.821,33.936l-.082,8.752s-.026.406.655.488a3.852,3.852,0,0,0,.979,0s.521-.028,1.854.028c0,0,.329.33.356-.082,0,0,.216-7.084.11-8.559,0,0-.03-.626-.492-.654a10.191,10.191,0,0,1-2.263,0l-.818-.216s-.327.027-.3.243" transform="translate(210.243 771.083)" fill="#fff"/>
      <path id="Trazado_131" data-name="Trazado 131" d="M144.766,34.557s-.081,4.116-.054,4.252l-.054,3.461-.111,1.2s.165.245.3.082a4.559,4.559,0,0,1,1.417-.135s1.746.162,2.1-.112c0,0,.273.136.353-.3,0,0,.108-7.629.057-7.766a8.08,8.08,0,0,0,.05-1.2s-.024-.245-.488-.028c0,0,.053.219-2.534.134,0,0-.981-.027-1.037.411" transform="translate(193.604 770.9)" fill="#fff"/>
      <path id="Trazado_132" data-name="Trazado 132" d="M167.17,35.826l-.026,8.611s.217.766.571.686a2.3,2.3,0,0,0,.08-.438l.111-8.205s-.274-1.306-.735-.654" transform="translate(175.534 769.523)" fill="#fff"/>
      <path id="Trazado_133" data-name="Trazado 133" d="M167.165,35.822l-.026,8.613s.218.766.572.686a2.259,2.259,0,0,0,.08-.438l.11-8.207S167.627,35.17,167.165,35.822Z" transform="translate(175.538 769.526)" fill="none" stroke="#050304" stroke-width="0.012"/>
      <path id="Trazado_134" data-name="Trazado 134" d="M150.083,48.446c-.081-.218.464-.245.464-.245l.273.054a.818.818,0,0,1,.382.056.314.314,0,0,1-.137.462l-.109.356c-.028.3,0,2.89,0,2.89a2.033,2.033,0,0,0,.272.379c0,.247-.3.193-.3.193l-.789.027c-.246-.027-.165-.3-.165-.3.272-.136.355-.628.355-.628v-2.7Z" transform="translate(189.274 759.482)" fill="#737efa"/>
      <path id="Trazado_135" data-name="Trazado 135" d="M128.62,48.946c.027.6.027,1.419.027,1.419a.512.512,0,0,0,.817-.164c.68-.653,0-1.254-.108-1.416s-.656-.028-.656-.028Zm-.027,2.155-.054.845.243.408c.165.218-.108.383-.108.383l-.872-.082c-.162-.084,0-.355,0-.355a.708.708,0,0,0,.246-.491l-.027-1.581.027-1.145c0-.137-.218-.38-.218-.38-.19-.027-.136-.272-.136-.272.054-.137.516-.056.516-.056h1.146c1.091.355.927,1.146.927,1.146a1.175,1.175,0,0,1-.762,1.118l-.057.436.792,1.252a.233.233,0,0,1,.11.22c-.11.3-.547,0-.547,0l-.98-1.528c-.082-.11-.246.082-.246.082" transform="translate(207.086 759.362)" fill="#737efa"/>
      <path id="Trazado_136" data-name="Trazado 136" d="M66.226,111.749a.508.508,0,0,0,.245-.215,2.346,2.346,0,0,0,.654-.137l1.8.137a5.034,5.034,0,0,0,2.534-.413,1.394,1.394,0,0,1,.465.083s.379.083.488.244l1.037-.027s.6.193.544.575v.489s-.11.982.163,1.037h.792s.655.3.572.68a.643.643,0,0,1-.544.654,3.333,3.333,0,0,1-.764.137,1.171,1.171,0,0,0-.22.544l-.08,3.571s-.056.381.518.327c0,0,.843-.082,1.09.383,0,0,.218.789-.218.925l-.326.162-.71.113s-.3.025-.326.542v.953s.028.656-.491.656l-.763.055a.63.63,0,0,1-.571.052s-4.634.084-4.8.028l-.546.111s-.6.545-1.09.134l-.381-.3a1.308,1.308,0,0,1-.38.027c-.11-.027-5.125.056-5.125.056s-1.063.111-1.144-.246a12.848,12.848,0,0,1-.082-1.555s0-.407-.245-.433c0,0-1.063-.055-1.091-.165,0,0-.573-.407-.41-.815a.947.947,0,0,1,.764-.6s.872.138.872-.108a1.478,1.478,0,0,0,.056-.435s.054-3.245.026-3.463c0,0,.081-.409-.273-.409a.877.877,0,0,1-.626-.055s-.655.027-.791-.491a.8.8,0,0,1,.053-.6,1,1,0,0,1,1.173-.407s.491.137.545-.216l-.026-1.311s-.111-.353.572-.543c0,0,.872.244,1.144-.191,0,0,.3-.6.543-.193a2.759,2.759,0,0,0,1.937.439,19.31,19.31,0,0,1,2.508-.086s.6.086.763.274Z" transform="translate(263.775 709.303)" fill="#88888f"/>
      <path id="Trazado_137" data-name="Trazado 137" d="M66.222,111.582a.51.51,0,0,0,.245-.216,2.348,2.348,0,0,0,.654-.137l1.8.137a5.03,5.03,0,0,0,2.535-.411,1.394,1.394,0,0,1,.465.083s.38.082.487.243l1.038-.027s.6.193.543.574v.49s-.109.982.164,1.036h.792s.654.3.573.682a.643.643,0,0,1-.545.654,3.276,3.276,0,0,1-.763.136,1.184,1.184,0,0,0-.221.545l-.081,3.572s-.055.379.518.326c0,0,.844-.081,1.092.382,0,0,.219.79-.218.927l-.327.163-.71.111s-.3.027-.325.542v.957s.026.654-.491.654l-.763.055a.629.629,0,0,1-.572.054s-4.634.082-4.8.026l-.547.111s-.6.546-1.089.134l-.382-.3a1.378,1.378,0,0,1-.38.029c-.11-.029-5.125.055-5.125.055s-1.064.11-1.145-.246a12.878,12.878,0,0,1-.082-1.555s0-.407-.246-.434c0,0-1.062-.054-1.091-.164,0,0-.572-.41-.409-.817a.95.95,0,0,1,.765-.6s.871.14.871-.109a1.463,1.463,0,0,0,.056-.433s.054-3.245.027-3.463c0,0,.081-.41-.274-.41a.878.878,0,0,1-.626-.053s-.654.027-.79-.491a.792.792,0,0,1,.054-.6,1,1,0,0,1,1.172-.409s.491.138.546-.216l-.027-1.31s-.11-.353.572-.545c0,0,.872.246,1.145-.19,0,0,.3-.6.543-.194a2.758,2.758,0,0,0,1.936.44,19.141,19.141,0,0,1,2.508-.085s.6.085.763.275Z" transform="translate(263.779 709.437)" fill="#737efa" stroke="#050304" stroke-width="0.01"/>
      <path id="Trazado_138" data-name="Trazado 138" d="M107.339,126a1,1,0,0,1,.547-.109c.218.054,3.407-.027,3.407-.027s1.39.108,1.609-.085l.325-.108a.65.65,0,0,0,.137-.38c0-.22.027-.956.027-.956l.083-.271s-.028-.272,0-7.552a1.139,1.139,0,0,0-.248-.926s0-.216.109-.19.056.029.056.029.49-.139.571.052a1.678,1.678,0,0,1,.028,1.035s-.055.792.357.792a.508.508,0,0,0,.488.081s.708.083.708.3a.4.4,0,0,1-.491.411l-.655.053a.509.509,0,0,0-.38.6c.056.518-.027,4.226-.027,4.226s0,.438.683.411c0,0,.844-.028.844.216a.392.392,0,0,1-.381.573s-1.145-.028-1.062.3a8.048,8.048,0,0,1-.138.9s.111.628-.027.738c0,0-.081.353-.816.3,0,0-4.687-.027-5.424.027,0,0-.437-.054-.328-.436" transform="translate(223.371 705.763)" fill="#fff"/>
      <path id="Trazado_139" data-name="Trazado 139" d="M101.368,165.813a.552.552,0,0,1,.463.518c0,.435.027.681-.247.735a.506.506,0,0,1-.651-.38.688.688,0,0,1,.435-.873" transform="translate(228.499 665.434)" fill="#fff"/>
      <path id="Trazado_140" data-name="Trazado 140" d="M105.894,162.628s.49-.329.681-.272a24.266,24.266,0,0,0,3.245.028c.762-.137.3-.028.3-.028s.655,0,.844-.247a.272.272,0,0,1,.3.138l.407.438s.031.27-.434.242c0,0-4.444,0-4.579.027,0,0-.845.134-.763-.326" transform="translate(224.517 668.402)" fill="#fff"/>
      <path id="Trazado_141" data-name="Trazado 141" d="M105.89,162.622s.49-.329.681-.273a24.241,24.241,0,0,0,3.246.029c.763-.138.3-.029.3-.029s.655,0,.845-.248a.273.273,0,0,1,.3.139l.407.439s.03.271-.434.242c0,0-4.444,0-4.58.028C106.653,162.949,105.808,163.084,105.89,162.622Z" transform="translate(224.52 668.408)" fill="none" stroke="#050304" stroke-width="0.012"/>
      <path id="Trazado_142" data-name="Trazado 142" d="M71.605,116.431s.191,0,.163.327l-.056,8.231a1,1,0,0,1-.38.9s-.247.3-.247-.163l.111-8.4a1.3,1.3,0,0,1,.408-.9" transform="translate(252.346 704.922)" fill="#fff"/>
      <path id="Trazado_143" data-name="Trazado 143" d="M71.6,116.427s.191,0,.165.327l-.058,8.233a1,1,0,0,1-.381.9s-.248.3-.248-.163l.111-8.4A1.3,1.3,0,0,1,71.6,116.427Z" transform="translate(252.353 704.925)" fill="none" stroke="#050304" stroke-width="0.012"/>
      <path id="Trazado_144" data-name="Trazado 144" d="M61.591,115.84a2.725,2.725,0,0,0-.3.738l-.027,1.824s-.027,1.172,0,1.309-.027,3.57-.027,3.57-.027.653,0,.872v1.471s-.055.656.435.489c0,0,4.8-.108,5.1-.025,0,0,.434.081.273.3,0,0,0,.192-.3.136a37.323,37.323,0,0,1-4.305.136s-1.363.08-1.446-.08c0,0-.217-.028-.217-.819a5.6,5.6,0,0,0-.053-.871s.053-.386-.628-.465c0,0-.954.164-.981-.408,0,0,.135-.409,1.063-.356,0,0,.681.11.546-.437l.081-4.031s.084-.712-.381-.74a2.444,2.444,0,0,0-.573.028s-.79,0-.735-.46a1,1,0,0,1,1.063-.382.529.529,0,0,0,.626-.572s-.027-1.391.3-1.444c0,0,.683.025.492.217" transform="translate(261.925 705.568)" fill="#fff"/>
      <path id="Trazado_145" data-name="Trazado 145" d="M73.536,161.728a1.394,1.394,0,0,0,1.01.383l3.7.053s.411.029.385.245c0,0-.058.327-.547.218l-4.471-.054-.492.03s-.327-.057.193-.683Z" transform="translate(250.796 668.701)" fill="#fff"/>
      <path id="Trazado_146" data-name="Trazado 146" d="M73.533,161.725a1.392,1.392,0,0,0,1.011.383l3.7.054s.411.028.386.245c0,0-.058.327-.546.22l-4.473-.054-.492.028s-.326-.056.193-.684Z" transform="translate(250.798 668.703)" fill="none" stroke="#050304" stroke-width="0.012"/>
      <path id="Trazado_147" data-name="Trazado 147" d="M132.715,124.814a2.868,2.868,0,0,0,.491.714s.3.351.219-.275l.054-7.851a1.625,1.625,0,0,1,0-.708l-.326-.6s-.355-.272-.355.163l-.054,8.369Z" transform="translate(203.065 705.258)" fill="#fff"/>
      <path id="Trazado_148" data-name="Trazado 148" d="M132.711,124.814a2.87,2.87,0,0,0,.493.714s.3.352.219-.276l.054-7.853a1.611,1.611,0,0,1,0-.706l-.327-.6s-.356-.272-.356.163l-.054,8.37Z" transform="translate(203.068 705.26)" fill="none" stroke="#050304" stroke-width="0.012"/>
      <path id="Trazado_149" data-name="Trazado 149" d="M81.3,119.236a8.465,8.465,0,0,1-.056,1.277c-.044.346.111,1.938-.027,2.755,0,0-.025.273-.6.029,0,0-3.488.08-3.6-.029,0,0-.954.029-1.036-.462,0,0,.136-3.734.055-3.873,0,0-.055-2.044,0-2.234,0,0,.082-1.881.028-2.1a2.129,2.129,0,0,0-.055-.656s0-.272.464-.11c0,0,.161.3,1.062.167a5.034,5.034,0,0,0,1.283.026,9.128,9.128,0,0,1,1.745,0,.612.612,0,0,1,.707.493l-.027,1.689.163.545.192-.135.081-.41.027-1.8a.636.636,0,0,1,.547-.382,3.4,3.4,0,0,1,.792-.026,9.237,9.237,0,0,0,1.99.052,2.454,2.454,0,0,0,1.717-.353s.327.027.327.243a22.4,22.4,0,0,0,0,2.754s0,4.251-.085,4.551l.056,1.363s.054.6-.9.655c0,0,.6.082-3.164-.026a2.993,2.993,0,0,0-1.253.271s-.136-.027-.136-.38a17.175,17.175,0,0,0,0-2.536l-.053-1.389Z" transform="translate(248.428 707.104)" fill="#fff"/>
      <path id="Trazado_150" data-name="Trazado 150" d="M83.2,127.53a21.047,21.047,0,0,1,0,2.288l-.026.437a1,1,0,0,0,.272.409s.137.38-.191.354a7.4,7.4,0,0,0-.844-.029s-.383,0,0-.488a1.149,1.149,0,0,0,.108-.683s0-2.288.056-2.424c0,0,.054-.3-.137-.384l-.328.028-.407.381s-.083.411-.274-.026v-.22l.247-.654.164-.028a1.836,1.836,0,0,0,.462.22h1.283l.463-.22s.19.028.138.273c0,0,.08.629-.274.709a.621.621,0,0,1-.326-.381s-.355-.189-.383.437" transform="translate(244.078 696.877)" fill="#737efa"/>
      <path id="Trazado_151" data-name="Trazado 151" d="M116.015,127.46a.976.976,0,0,0-1.06,1.035s-.112.765,1.034,1.256c0,0,.846.407.789.924,0,0-.109.927-1.008.464,0,0-.435-.219-.406-.464,0,0-.139-.3-.3-.245,0,0-.192.053-.107.954,0,0,0,.355.409,0l.215.056a.958.958,0,0,0,1.362-.138,1.1,1.1,0,0,0,.191-1.389,2.467,2.467,0,0,0-.98-.816,1.473,1.473,0,0,1-.735-.738.578.578,0,0,1,.925-.383,1.651,1.651,0,0,0,.436.383s.219,0,.163-.493l-.051-.406s-.055-.3-.438,0c0,0-.355.134-.437,0" transform="translate(217.284 696.211)" fill="#737efa"/>
      <path id="Trazado_152" data-name="Trazado 152" d="M96.242,126.8c-.028.137-.22.9-.22.9l.164.275s.437.025.6.025.191-.134.191-.273a8.132,8.132,0,0,0-.3-.953l-.138-.163Zm.434-1.8a.642.642,0,0,1,.218.411,31.779,31.779,0,0,1,1.009,3.544,1.908,1.908,0,0,0,.381.489c.464.163,0,.3,0,.3a2.444,2.444,0,0,1-.816-.025c-.329-.058-.194-.165-.194-.165.138-.136.028-.683.028-.683a1.881,1.881,0,0,0-.271-.571c-.109-.055-.3.19-.3.19s-.3.11-.328,0-.218-.214-.218-.214c-.327,0-.463.813-.463.813.19.682,0,.572,0,.572-.163.22-.682.058-.682.058-.245-.058-.08-.248-.08-.248a.528.528,0,0,0,.379-.381c.137-.19,1.008-3.733,1.008-3.733.084-.164.137-.491.328-.355" transform="translate(233.299 698.093)" fill="#737efa"/>
      <path id="Trazado_153" data-name="Trazado 153" d="M33.466,43.465s-.3.956-1.636-.027l-4.579-.11a.5.5,0,0,1-.682-.435,10.144,10.144,0,0,0,.053-1.362s.029-.356-.571-.356c0,0-.925.111-.952-.707,0,0-.165-.875,1.116-.845,0,0,.407.19.436-.328,0,0-.055-3.543-.029-3.817,0,0,.111-.324-.516-.379,0,0-.9.189-1.007-.411,0,0-.056-.9.543-.954,0,0,.736.056.873-.133,0,0,.164.105.136-.549l.027-1.116s.082-.3.543-.272a3.884,3.884,0,0,0,.957-.028,3.032,3.032,0,0,0,.242-.355s.439-.026.52.081c0,0,.653.439,3.136.274,0,0,.379,0,.462.11,0,0,.463.354.735-.028a9.015,9.015,0,0,1,1.637-.054,2.793,2.793,0,0,0,2.261-.408l.3.056s.381.625.656.434c0,0,.816-.082.954.082a2.306,2.306,0,0,1,.135,1.473s-.162.463.628.463c0,0,.9-.162.791.679,0,0,.246.955-1.253.819a.865.865,0,0,0-.165.463s-.027,3.106-.053,3.462c0,0-.026.487.627.462,0,0,.872-.057.9.736,0,0,.109,1.035-1.144.843,0,0-.382.057-.438.3l-.053,1.362s.027.682-.738.519c-.109,0-4.249.081-4.605-.026,0,0-.19-.027-.244.08" transform="translate(289.125 773.032)" fill="#88888f"/>
      <path id="Trazado_154" data-name="Trazado 154" d="M33.462,43.463s-.3.956-1.636-.027l-4.58-.11a.5.5,0,0,1-.682-.436,10.134,10.134,0,0,0,.054-1.362s.028-.355-.572-.355c0,0-.925.111-.952-.707,0,0-.164-.876,1.117-.846,0,0,.407.19.435-.327,0,0-.055-3.545-.028-3.818,0,0,.111-.325-.517-.379,0,0-.9.189-1.008-.411,0,0-.056-.9.544-.953,0,0,.735.055.873-.134,0,0,.164.107.135-.548l.028-1.117s.081-.3.543-.271a3.892,3.892,0,0,0,.956-.028,2.981,2.981,0,0,0,.243-.354s.438-.026.52.081c0,0,.652.438,3.136.273,0,0,.379,0,.462.11,0,0,.463.354.735-.028a9.017,9.017,0,0,1,1.637-.053,2.8,2.8,0,0,0,2.261-.409l.3.056s.381.624.656.434c0,0,.816-.081.955.082a2.321,2.321,0,0,1,.134,1.473s-.163.464.627.464c0,0,.9-.164.791.678,0,0,.246.955-1.252.819a.859.859,0,0,0-.165.464s-.027,3.106-.053,3.461c0,0-.027.489.626.464,0,0,.872-.058.9.736,0,0,.108,1.034-1.145.842,0,0-.381.057-.437.3l-.054,1.362s.029.683-.737.52c-.109,0-4.25.08-4.606-.027C33.706,43.382,33.516,43.356,33.462,43.463Z" transform="translate(289.129 773.035)" fill="#737efa" stroke="#050304" stroke-width="0.01"/>
      <path id="Trazado_155" data-name="Trazado 155" d="M38.668,36.143s.055.544.055.68S38.64,44.7,38.64,44.7a.934.934,0,0,1-.436.9s-.135.056-.163-.326L38.1,37.1s.054-1.009.572-.955" transform="translate(278.771 769.125)" fill="#fff"/>
      <path id="Trazado_156" data-name="Trazado 156" d="M38.669,36.14s.055.544.055.68S38.64,44.7,38.64,44.7a.937.937,0,0,1-.437.9s-.135.055-.163-.326l.054-8.178S38.149,36.086,38.669,36.14Z" transform="translate(278.771 769.128)" fill="none" stroke="#050304" stroke-width="0.012"/>
      <path id="Trazado_157" data-name="Trazado 157" d="M28.77,44.764s.053-7.686.027-7.823.026.111.026.111A4.256,4.256,0,0,1,29.1,35.17s-.11-.463-.737.108L28.336,36.4s0,.627-.574.6a1.508,1.508,0,0,0-.955.273s-.163.6.463.491c0,0,.983,0,1.037.406l-.054,4.117a.5.5,0,0,1-.546.681s-.926-.052-.9.52c0,0,.191.491.983.326a.661.661,0,0,1,.547.652V45.5s-.057.41.487.434h4.253s.218.027.218-.246c0,0-.027-.215-.353-.215L29.4,45.418s-.576.191-.629-.654" transform="translate(287.769 770.043)" fill="#fff"/>
      <path id="Trazado_158" data-name="Trazado 158" d="M40.305,82.578s-.108.383.3.3h2.808l.763.163s.793-.19,0-.627c0,0-2.508.029-2.726-.026,0,0-.517-.136-.626-.164,0,0-.273-.108-.518.355" transform="translate(276.97 732.285)" fill="#fff"/>
      <path id="Trazado_159" data-name="Trazado 159" d="M40.3,82.576s-.108.385.3.3h2.809l.764.165s.792-.19,0-.628c0,0-2.509.029-2.727-.027,0,0-.518-.135-.627-.162C40.819,82.223,40.545,82.114,40.3,82.576Z" transform="translate(276.973 732.286)" fill="none" stroke="#050304" stroke-width="0.012"/>
      <path id="Trazado_160" data-name="Trazado 160" d="M61.657,85.9s-.519,0-.492.678a.587.587,0,0,0,.6.521.549.549,0,0,0,.438-.627s-.3-.683-.545-.571" transform="translate(260.28 729.346)" fill="#fff"/>
      <path id="Trazado_161" data-name="Trazado 161" d="M65.5,83.023s.244-.272.41-.272c0,0,2.725.246,3.188-.08,0,0,.41-.082.517,0,0,0,.409.326.409.517,0,0-.027.248-.516.111,0,0-3.083.026-3.245.026,0,0-.846.19-.763-.3" transform="translate(256.817 731.948)" fill="#fff"/>
      <path id="Trazado_162" data-name="Trazado 162" d="M65.5,83.022s.245-.273.41-.273c0,0,2.725.247,3.189-.08,0,0,.411-.082.518,0,0,0,.409.326.409.518,0,0-.026.248-.516.11,0,0-3.083.027-3.246.027C66.26,83.324,65.414,83.514,65.5,83.022Z" transform="translate(256.82 731.949)" fill="none" stroke="#050304" stroke-width="0.012"/>
      <path id="Trazado_163" data-name="Trazado 163" d="M67.7,45.983s0-.217.379-.217l3.819-.028s.353.189.353-.463c0,0,.14-2.972.152-6.244.005-.973.048-1.995.011-2.941,0,0-.081-.408-.19-.492,0,0,0-.436.465-.271,0,0,.406.026.3.652l.027.955s-.081.409.655.3c0,0,.735.109.762.381,0,0,.22.547-.651.491h-.626a.45.45,0,0,0-.192.491l-.081,3.951s-.057.681.6.656c0,0,.681-.028.816.189,0,0,.465.682-.544.627a2.067,2.067,0,0,0-.763.081,4.292,4.292,0,0,0-.19,1.418s.054.763-.518.681c0,0-3.789.053-4.142-.027,0,0-.383.11-.437-.19" transform="translate(255.054 769.806)" fill="#fff"/>
      <path id="Trazado_164" data-name="Trazado 164" d="M42.887,33.935l-.08,8.75s-.027.406.654.488a3.831,3.831,0,0,0,.981,0s.517-.026,1.853.028c0,0,.327.326.354-.081,0,0,.219-7.088.11-8.559,0,0-.026-.626-.492-.654a10.45,10.45,0,0,1-2.261,0l-.816-.218s-.329.026-.3.246" transform="translate(274.959 771.086)" fill="#fff"/>
      <path id="Trazado_165" data-name="Trazado 165" d="M86.225,35.818,86.2,44.432s.219.765.574.684a2.246,2.246,0,0,0,.081-.439l.111-8.205s-.273-1.309-.739-.654" transform="translate(240.262 769.53)" fill="#fff"/>
      <path id="Trazado_166" data-name="Trazado 166" d="M86.225,35.818,86.2,44.432s.219.765.574.684a2.246,2.246,0,0,0,.081-.439l.111-8.205s-.273-1.309-.739-.654" transform="translate(240.262 769.53)" fill="none" stroke="#050304" stroke-width="0.012"/>
      <path id="Trazado_167" data-name="Trazado 167" d="M86.225,35.818,86.2,44.432s.219.765.574.684a2.246,2.246,0,0,0,.081-.439l.111-8.205S86.69,35.163,86.225,35.818Z" transform="translate(240.262 769.53)" fill="none" stroke="#050304" stroke-width="0.012"/>
      <path id="Trazado_168" data-name="Trazado 168" d="M63.843,34.383s-.082,4.115-.057,4.253L63.735,42.1l-.111,1.2s.162.249.3.084a4.73,4.73,0,0,1,1.418-.136s1.745.164,2.1-.109c0,0,.272.135.355-.3,0,0,.108-7.63.054-7.768a7.883,7.883,0,0,0,.054-1.2s-.027-.248-.488-.031c0,0,.053.22-2.535.139,0,0-.982-.028-1.036.407" transform="translate(258.313 771.039)" fill="#fff"/>
      <path id="Trazado_169" data-name="Trazado 169" d="M47.652,48.634l-.247.52a22.232,22.232,0,0,1-.923,3.186s-.055.547-.519.11c0,0-1.064-3.352-1.118-3.461l-.355-.245s-.215-.3.165-.326l1.008.027s.326.271-.109.575a14,14,0,0,0,.626,2.1s.163.627.354.163l.546-1.935-.164-.572s-.164-.272.082-.3c0,0,.572-.054.653.163" transform="translate(273.662 759.309)" fill="#737efa"/>
      <path id="Trazado_170" data-name="Trazado 170" d="M67.135,48.918l-.029,2.889-.08.218s-.273.353-.083.381c0,0-.243.165,1.744.191,0,0,.765.135.573-.846,0,0-.081-.354-.356.165,0,0-.081.434-1.061.3a.65.65,0,0,1-.219-.408v-1.2s-.029-.3.435-.27c0,0,.518.325.6.188a.846.846,0,0,0,0-.708s-.246-.026-.272.083c0,0-.164.325-.627.134a1.137,1.137,0,0,1-.081-.79s-.054-.682.41-.626c0,0,.545.108.6.273,0,0,.136.328.274-.054l-.138-.465s-.08-.191-.217-.136c0,0-.927.136-1.037.026l-.736.083a.315.315,0,0,0,.22.408.208.208,0,0,1,.082.165" transform="translate(255.761 759.461)" fill="#737efa"/>
    </g>
  </g>
</svg>
