<svg xmlns="http://www.w3.org/2000/svg" xmlns:xlink="http://www.w3.org/1999/xlink" width="172" height="92" viewBox="0 0 172 92">
  <defs>
    <clipPath id="clip-harvard-logo-surveyhoney_5">
      <rect width="172" height="92"/>
    </clipPath>
  </defs>
  <g id="harvard-logo-surveyhoney_5" data-name="harvard-logo-surveyhoney – 5" clip-path="url(#clip-harvard-logo-surveyhoney_5)">
    <g id="Grupo_217" data-name="Grupo 217" transform="translate(17.763 -9.788)">
      <path id="Trazado_175" data-name="Trazado 175" d="M199.607,24.175V48.316l8.2,8.209,19.615-.005v8.388H217.35v-5.47H199.62v13.2l8.244,8.305h27.029l8.217-8.2V48.322l-8.372-8.079h-18V31.254h9.962v6.194H243.1l.013-13.262-9.188-9.4H209.064Z" transform="translate(-152.902 0)" fill="#a7aefa"/>
      <g id="Grupo_29" data-name="Grupo 29" transform="translate(15.237 15.91)">
        <path id="Trazado_176" data-name="Trazado 176" d="M205.947,30.116V53.34l7.571,7.566h20.248V71.476c-1.721,0-10.555,0-12.276,0v-5.47H205.96v11.64l7.6,7.68H239.7l7.553-7.568V54.241l-7.736-7.425-18.629-.005V35.636h12.14V41.83h14.225V30.121l-8.536-8.76H214.741l-8.794,8.755" transform="translate(-173.397 -21.361)" fill="#fff"/>
        <path id="Trazado_177" data-name="Trazado 177" d="M220.526,28.248l-8.146,8.119V58.681L219.3,65.6H240.2V78.363H225.746v-5.47H212.4V82.98l6.933,7.045h25.256l6.922-6.93V60.471L244.4,53.7H225.145V40.332h14.334v6.2h12.028V36.367L243.6,28.248Z" transform="translate(-178.733 -27.072)" fill="#a7aefa"/>
        <path id="Trazado_178" data-name="Trazado 178" d="M351.484,229.241l-.043.061Z" transform="translate(-294.06 -193.761)" fill="#8a1426"/>
        <path id="Trazado_179" data-name="Trazado 179" d="M266.575,21.5a.954.954,0,0,0-.8.351.856.856,0,0,0-.154.492,1.429,1.429,0,0,0,.053.354c-.165.338-.4.856-.431.859h-.186a.905.905,0,0,0-.971.6,1.144,1.144,0,0,0-.125.5,3.348,3.348,0,0,0,.324,1.154l.181.25a2.039,2.039,0,0,0-1.082,2.013.974.974,0,0,0,.1.386.956.956,0,0,0,.3.306l-.112.122c-.875.673-1.872,1.292-1.888,2.1l.213.657.016.005c-.606.3-1.242.848-1.242,1.516v.077c.075.84,1.1,1.17,1.407,1.255l.268.066.239-.138a4.116,4.116,0,0,1,1.747-.681v.034c.013,1.537-2.154,2.207-2.255,2.239l.112-.029A5.363,5.363,0,0,0,258.1,39a1.833,1.833,0,0,0-.59,1.258,1.124,1.124,0,0,0,.282.75l.069.077.1.048c1,.495,2.968-.628,4.066-1.346l.056-.032.045-.051a.826.826,0,0,1,.545-.3.618.618,0,0,1,.383.234l.112.141.181.074a3.3,3.3,0,0,1,.479.218,35.509,35.509,0,0,0-3.952,1.734l-.213.1-.1.2a4.849,4.849,0,0,1-2.082,1.5,2.774,2.774,0,0,0-1.814,1.769,1.857,1.857,0,0,0,.364,1.556l.173.186.221.035A33.164,33.164,0,0,0,262,46.132l.04-.008.043-.016c.774-.3,1.013-.194,1.04-.178l.029.2.1.09A5.289,5.289,0,0,1,262,47.954l-.114.117-.04.157a1.889,1.889,0,0,1-1.1.979l.045-.016c-3.518.88-3.561,2.25-3.489,2.654l.109.577,3.21-.266.154-.136c.2-.162.253-.109.3-.061l.128.13.2.066.452.114v.045a4.4,4.4,0,0,1-.173,1.144H260l-.069.487a.992.992,0,0,1-.492.13c-.761-.316-1.534.5-1.633.6l-.069.064-.085.136a2.429,2.429,0,0,1-.777.457l.114-.035c-.659.165-.862.519-.9.784l-.019.154a1.013,1.013,0,0,0,.41.747c-.521.136-1.308.332-1.292,1.034v.056a.782.782,0,0,0,.364.612c.255.149.9.556,6.053-1.558l.053-.024a2.954,2.954,0,0,1-.463.391l-.072.048-.056.069a2.866,2.866,0,0,1-1.308.75l.056-.008c-2.08.335-2.771,1.26-3.01,1.787a1.333,1.333,0,0,0,.029,1.282c.226.346.266.375,2.63-.051a6.875,6.875,0,0,1-.436,1.127c-.144.136-1.814,1.638-1.885,1.7-2.223,1.263-3.558,5.356-3.7,5.829l-.013.066-.016.067v.175a1.051,1.051,0,0,0,.5.96c.673.425,1.673-.082,2.066-.319l.152-.09.3-.542a2.355,2.355,0,0,1,1.675-.785,3.3,3.3,0,0,0,2.322-1.077l.042-.056.04-.064a.378.378,0,0,1,.269-.186c1.492.2,2.574-1.423,2.97-2.1.335-.09.633-.008.9.556a8.047,8.047,0,0,1,.338,2.252v.354l-.072,2.167-.069,2.088.069-.08-.013.067-.011,1.122c-.019.928-.045,2.335-.088,2.659-.17,1.239-.394,1.383-.476,1.436a3.3,3.3,0,0,1-.537.2,4.568,4.568,0,0,0-.787.3,3.291,3.291,0,0,0-1.827,2.122,1.868,1.868,0,0,1-.537.83c-.62.386-.62.386-.843.425l-.508.1a2.784,2.784,0,0,0-1.742,1.484l-.465.926,19.2-.005-.1-.84c-.1-.9-.495-1.476-2.423-2.109a2.224,2.224,0,0,1-1.266-.8,6.269,6.269,0,0,0-2.194-1.484c-.535-.276-1.029-1.441-1.324-2.922a8.575,8.575,0,0,1-.109-1.848l.011-.035-.109-2.893-.016-2.33c0,.005.027-2.3.042-3.234a3.577,3.577,0,0,0,1.561.489l2.463.1.04-.005a7.73,7.73,0,0,1,3.056,1.673l.043.029.04.024c.763.436,1.718.872,2.335.375a1.127,1.127,0,0,0,.311-1.226l.029.1c-.62-4.441-3.181-5.17-3.6-5.258a1.578,1.578,0,0,1-.293-.109l.082-.088-.043.032c.761-.6,1.085-1.2.944-1.785-.226-.869-1.338-1.119-1.564-1.159l-.1-.016-.1.016a4.266,4.266,0,0,1-2.433-.646c-1.167-.893-1.489-1.588-1.489-1.981l.053-.255-.013.024.069-.107.029-.085a6.164,6.164,0,0,1,2.21.979l-.072-.056a1.919,1.919,0,0,0,2.423.13l.168-.12.056-.208a3.91,3.91,0,0,1,.814-.811,1.416,1.416,0,0,0,.675-1.1l-.04-.279c-.285-.917-1.872-1.25-3.239-1.362-.21-.127-.939-.577-.939-.577A4.882,4.882,0,0,1,270,51.355c.816.077,1.59.152,2.042.2a2.922,2.922,0,0,0,1.7-.066.838.838,0,0,0,.505-.766v-.045a3.5,3.5,0,0,0-2.207-2.242,5.042,5.042,0,0,1-2.236-2.008,3,3,0,0,1-.1-.782,5.572,5.572,0,0,1,.045-.721,2.161,2.161,0,0,1,1.165.713l.215.261.335-.029a1.887,1.887,0,0,1,.817.25l.255.141.266-.085a7.358,7.358,0,0,1,1.912.133c1,.141,1.354.324,1.673-.234l.072-.128.045-.167a3.8,3.8,0,0,0-1.917-3.768l-.208-.107-.059.013a2.741,2.741,0,0,1-.338-.519,2.128,2.128,0,0,0-2.122-.995,1.609,1.609,0,0,0-.862-.338l-.183-.2-.069-.274.338.048c3.082.428,3.463.439,3.8.1a.924.924,0,0,0,.293-.7l-.013-.2c-.239-1.09-2.7-2.229-4.739-2.994-1.465-.564-1.859-1.154-1.931-1.3l-.069-.183a.27.27,0,0,1,.1-.226c.154-.136.551-.1.928.029l.072.024.085.008a1.822,1.822,0,0,0,2-.973l.085-.215-.072-.218a2.947,2.947,0,0,0-1.492-1.643.912.912,0,0,0,.394-.848,2.734,2.734,0,0,0-1.322-1.643c.718-.242.013-1.519-.859-2.2l-.266-.2a1.418,1.418,0,0,0,.872-1.133l.013-.178a.788.788,0,0,0-.577-.79,1.934,1.934,0,0,1-.9-.354c.154-.024,0-.891-.114-1.056l.085-.37a.844.844,0,0,0-.226-.657.911.911,0,0,0-.659-.2" transform="translate(-212.764 -21.48)" fill="#fff"/>
        <path id="Trazado_180" data-name="Trazado 180" d="M271.279,69.03l-.042,3.627.013,2.353.1,2.859a8.8,8.8,0,0,0,.122,2.024c.255,1.242.734,2.9,1.659,3.369,2.564,1.308,1.566,1.662,3.561,2.324,2.043.678,1.915,1.165,1.989,1.7H261.246a2.261,2.261,0,0,1,1.311-1.141,2.684,2.684,0,0,0,1.558-.6c.777-.5.633-2.21,2.266-2.9.662-.287,1.114-.367,1.423-.558.213-.138.564-.359.774-1.9.069-.513.082-2.978.1-3.838l.112-2.21-.1.128.075-2.189v-.372a9.755,9.755,0,0,0-.4-2.516,1.391,1.391,0,0,0-1.928-.827s-1.141,2.308-2.55,2.005a.992.992,0,0,0-.8.5s-1.072,1.09-1.872.888a3.057,3.057,0,0,0-2.21,1.1l-.221.4s-1.691,1-1.593-.2c0,0,1.38-4.4,3.478-5.5l2.011-1.811s1.125-2.274.426-2.372l-2.606.535s.1-1.545,2.617-1.949a4.6,4.6,0,0,0,1.577-1.088s1.5-1.005,1-1.806c0,0-.489-.3-1.194.3,0,0-5.473,2.25-5.531,1.505-.027-.425,1.606-.4,1.816-.907,0,0,0-1.1-.7-.6,0,0-.6-.4.2-.606,0,0,.9-.4,1.112-.8,0,0,.588-.6,1.1-.4,0,0,1.109,0,1.207-.6h1.6s.59-1.782.2-2.383l-.8-.2a.815.815,0,0,0-1.21,0l-2.407.2s-.21-1.106,3.01-1.907a2.524,2.524,0,0,0,1.508-1.407s2-2.008,1.306-2.614c0,0-.112-1-1.912-.3a47.662,47.662,0,0,1-5.321,1.005s-1.106-1.306,1.2-2.311c0,0,1.915-.8,2.417-1.806a41.264,41.264,0,0,1,4.026-1.742s1.308-.7-.606-1.4a1.167,1.167,0,0,0-1.9,0s-2.611,1.7-3.415,1.3c0,0-.409-.4.391-1.2a4.781,4.781,0,0,1,3.715-2.715s3.236-.981,2.617-3.465c0,0-.745-.439-2.643.7,0,0-2.125-.707.282-1.784l.729-.981s-.742.524-.843-.026c-.069-.271-.085-.659.676-1.037.984-.484.76-.928,1.915-.978a.564.564,0,0,0,.056-.479c-1.114-.136-1.646-1.545.309-2.4l.2-.822-.846.072s-.7-1.276.649-1.247a3.513,3.513,0,0,0,.843-1.537s-.338-.537.269-.537c0,0,.391-.178.2.723a2.808,2.808,0,0,1,.239,1.016s-.239.577,1.223.915c.154.034.17,1.082-.843.984,0,0-.322.657.62,1.407,0,0,1.574,1.455.154,1.535,0,0,2.181,1.391,1.564,2.021-.285.274-1.128-.109-1.213.048-.112.231-.069.343.239.468.253.106,1.814.508,2.25,1.755,0,0-.221.628-1.348.545,0,0-2.1-.774-1.8,1.133,0,0,.239.965,2.351,1.769,0,0,5.132,1.936,4.234,2.843-.24.242-4.534-.535-5.335-.535l-.112.606s1.213-.3,1.213.8l.489.532s.8,0,.9.4c0,0,1.308-.3,1.814.606,0,0,.492,1,.9.9a3.176,3.176,0,0,1,1.521,3.146c-.1.17-2.446-.434-3.223-.181a2.589,2.589,0,0,0-1.2-.335s-1.122-1.364-2.22-.824a4.951,4.951,0,0,0,0,2.207,5.427,5.427,0,0,0,2.587,2.425,3.044,3.044,0,0,1,1.83,1.694c.029.391-1.082.268-1.25.226-.186-.04-3.268-.327-3.268-.327a2.824,2.824,0,0,0,.17.718c.593,1.532,1.8,1.952,3.758,3.175,0,0,4.111.3,2.4,1.606,0,0-.941.729-1.037,1.128a1.272,1.272,0,0,1-1.6-.1s-2.984-1.931-3.183-.625c0,0-.915,1.223,1.59,3.127a4.956,4.956,0,0,0,2.9.755s2.138.391.324,1.792c0,0-1,.91.508,1.308,0,0,2.5.4,3.106,4.718,0,0,.409,1.306-1.7.1,0,0-2.4-1.907-3.516-1.806l-2.409-.1a2.61,2.61,0,0,1-1.521-.6s-.657-.516-.729.362" transform="translate(-215.893 -24.338)" fill="#737efa"/>
        <path id="Trazado_181" data-name="Trazado 181" d="M15.665,435.433a7.892,7.892,0,0,0,2.431.465c2.066,0,4.1-1.146,4.1-3.343,0-2.016-1.417-2.76-3.056-3.6-1.654-.856-2.38-1.308-2.38-2.47a1.871,1.871,0,0,1,2-1.806,1.933,1.933,0,0,1,2.082,1.771c.019.165.051.263.266.263.231,0,.4-.035.4-.114v-.083l-.117-2.018a6.192,6.192,0,0,0-2.082-.452c-2.231,0-3.917,1.133-3.917,3.149a2.676,2.676,0,0,0,1.67,2.6l2.1,1.21a2.456,2.456,0,0,1,1.471,2.183,2.279,2.279,0,0,1-2.266,2.082,2.517,2.517,0,0,1-2.561-1.939c-.032-.112-.082-.144-.133-.144-.1,0-.428,0-.428.1l.2,1.513c.051.359.1.566.231.633" transform="translate(-15.237 -355.317)" fill="#737efa"/>
        <path id="Trazado_182" data-name="Trazado 182" d="M71.1,423.878a.194.194,0,0,0,.2-.146c.316-1.032.513-1.814,1.771-1.814H75.28l.053.747v7.656c0,1.338-.069,1.843-1.574,1.843h-.2l-.165.064c-.051.026-.067.128-.067.178a1.078,1.078,0,0,0,.067.287c.4,0,1.822-.08,2.728-.08,1.154,0,1.965.08,2.295.08.263,0,.346,0,.346-.191v-.261l-.1-.077c-1.026,0-1.851,0-1.851-1.2v-9.047H79.1c.676,0,1.072.019,1.141.846l.064.806c0,.083.38.162.529.162.082,0,.13-.34.13-.516a19.533,19.533,0,0,1,.367-2.617c0-.146-.383-.146-.5-.146a1.994,1.994,0,0,1-1.9.84H72.786a1.293,1.293,0,0,1-1.407-.694c-.231,0-.463,0-.463.064,0,1.274-.2,2.776-.2,3.053,0,.1.152.162.383.162" transform="translate(-61.248 -352.337)" fill="#737efa"/>
        <path id="Trazado_183" data-name="Trazado 183" d="M146.1,425.121h.035l1.832,4.619H144.53Zm-5.106,9.77c.5,0,1.191-.08,1.636-.08s1.649.08,2.032.08c.114,0,.133-.066.133-.226,0-.213-.034-.3-.183-.3-.444,0-1.223-.12-1.223-.652a3.8,3.8,0,0,1,.2-1.045l.731-2.3h3.949l1.056,2.6a3.137,3.137,0,0,1,.3.955c0,.388-.811.439-1.058.439-.231,0-.33.077-.33.255,0,.226.016.274.266.274.659-.048,1.319-.08,1.984-.08.643,0,1.7.08,1.965.08.2,0,.314,0,.314-.175s-.032-.372-.213-.372a1.379,1.379,0,0,1-1.54-1.021L146.86,423.1a3.571,3.571,0,0,0-1.093.779l-3.271,9.3c-.311.888-.431,1.048-1.29,1.133-.394.032-.545.064-.545.141v.184c0,.208,0,.255.332.255" transform="translate(-119.254 -354.534)" fill="#737efa"/>
        <path id="Trazado_184" data-name="Trazado 184" d="M226.458,425.948a2.524,2.524,0,0,1,1.159.872,1.006,1.006,0,0,1,.08.535v7.9c0,.822-.792.989-1.487.989-.2,0-.215.064-.215.2,0,.21.016.324.12.324.755,0,1.122-.082,1.931-.082.694,0,1.753.082,2.064.082.051,0,.069-.13.069-.258s-.048-.271-.117-.271c-1.423-.053-1.622-.218-1.622-1.6v-7.411l8.927,9.967h.4v-9.353c0-1.372,0-1.939,1.138-1.939h.426c.117,0,.152-.016.152-.1v-.311c0-.064-.016-.128-.1-.128-.46,0-1.253.082-2,.082-.809,0-1.665-.08-2.032-.08-.1,0-.149.16-.149.255,0,.117.034.277.1.277l.713.032c.529.016.928.176.928,1.247v7.1h-.069a39.039,39.039,0,0,1-2.694-2.907l-5.01-5.912c-.3-.034-1.5-.1-2.263-.1-.412,0-.811.032-1.322.032-.085,0-.085.13-.085.21,0,.133.016.293.085.293Z" transform="translate(-189.611 -356.412)" fill="#737efa"/>
        <path id="Trazado_185" data-name="Trazado 185" d="M322.593,425.98h.282c.979,0,1.143.21,1.143,1.2v7.794c0,.952-.13,1.146-1.011,1.213l-.726.053c-.069,0-.085.144-.085.239,0,.128,0,.29.13.29.452,0,1.673-.08,2.353-.08.771,0,1.3.08,2.54.08.184,0,.184-.194.184-.324,0-.112-.032-.2-.117-.2l-.859-.072c-.84-.064-.925-.4-.925-1.035v-4.228h2.367c1.4,0,1.739.582,1.851,1.242.067.263.117.407.247.407.181,0,.3-.066.3-.207,0-.359-.069-1.2-.069-1.67a12.754,12.754,0,0,1,.069-1.548c0-.08-.035-.114-.1-.114a3.03,3.03,0,0,0-.444.082c0,.885-.348,1.279-1.768,1.279H325.5v-2.846c0-1.175.12-1.55,1.343-1.55h2.311c.516,0,.992.1,1.173.729l.154.5a5.749,5.749,0,0,1,.114.566h.247c.162,0,.3-.029.3-.1,0-.117-.019-.229-.019-.34l-.066-1.824c0-.133-.13-.149-.229-.149-.583,0-1.141.085-1.7.085h-6.776c-.183,0-.183.271-.183.4,0,.1.133.144.428.127" transform="translate(-269.78 -356.412)" fill="#737efa"/>
        <path id="Trazado_186" data-name="Trazado 186" d="M399.647,424.588c2.976,0,4.877,2.763,4.877,5.473,0,2.779-1.574,5.218-4.617,5.218-3.074,0-4.792-2.859-4.792-5.619,0-2.731,1.471-5.071,4.531-5.071m.149,11.318c3.287,0,6.5-2.923,6.5-6.167,0-3.359-3.09-5.683-6.566-5.683a6.338,6.338,0,0,0-6.38,6.132c0,3.524,2.994,5.718,6.449,5.718" transform="translate(-328.812 -355.325)" fill="#737efa"/>
        <path id="Trazado_187" data-name="Trazado 187" d="M490.169,426.624c0-.484.032-.739,1.159-.739a2.258,2.258,0,0,1,2.444,2.343c0,1.9-1.654,2.356-2.973,2.356-.215,0-.412-.016-.63-.029Zm-2.561-.723c1.042,0,1.077.4,1.077,1.21v7.8c0,1.112-.3,1.274-1.441,1.327-.33.013-.394.045-.394.191,0,.128.032.338.13.338.231,0,2.066-.08,2.343-.08.715,0,1.425.08,2.284.08.253,0,.3-.1.3-.4,0-.125-.279-.125-.909-.125-.827,0-.827-.553-.827-1.136v-3.957a4.339,4.339,0,0,1,.58-.032c1.093,0,1.721,1.016,2.795,2.875.976,1.7,1.721,2.779,2.1,2.779.4,0,.8-.048,1.189-.048.25,0,.763.048,1.109.048.066,0,.183-.016.183-.162v-.3l-.1-.1a1.993,1.993,0,0,1-1.949-1.072l-1.822-2.707c-.165-.261-.838-1.439-1.481-1.582v-.037a2.925,2.925,0,0,0,2.659-2.643c0-1.694-1.657-2.8-3.343-2.8-.758,0-1.5.048-2.266.048-.955,0-1.931-.045-2.888-.045-.067,0-.117.146-.117.226,0,.128.019.306.117.306Z" transform="translate(-406.328 -356.412)" fill="#737efa"/>
        <path id="Trazado_188" data-name="Trazado 188" d="M569.69,425.708c0-1.032.651-1.13,2.005-1.13a7.057,7.057,0,0,1,2.548.418,5.365,5.365,0,0,1,2.726,4.943,4.85,4.85,0,0,1-4.678,5.2c-.729,0-2.6,0-2.6-1.782Zm-2.226-.792c.612,0,.745.628.745,1.245v7.749a.988.988,0,0,1-.415.936,3.21,3.21,0,0,1-1.255.3c-.067,0-.146.159-.146.271s.013.258.08.258c.827-.019,1.654-.066,2.473-.066s1.659.066,3.234.066c3.138,0,6.555-1.811,6.555-5.813a5.692,5.692,0,0,0-4.345-5.526,10.389,10.389,0,0,0-2.582-.29,36.257,36.257,0,0,0-5.17.4c-.277.061-.277.114-.277.213,0,.08,0,.319.061.319.314,0,.843-.064,1.042-.064" transform="translate(-472.297 -355.314)" fill="#737efa"/>
      </g>
    </g>
  </g>
</svg>
