<svg xmlns="http://www.w3.org/2000/svg" xmlns:xlink="http://www.w3.org/1999/xlink" width="48" height="48" viewBox="0 0 48 48">
  <defs>
    <clipPath id="clip-show-passwrod-ico-surveyhoney">
      <rect width="48" height="48"/>
    </clipPath>
  </defs>
  <g id="show-passwrod-ico-surveyhoney" clip-path="url(#clip-show-passwrod-ico-surveyhoney)">
    <path id="Unión_5" data-name="Unión 5" d="M-3095.771-243.77l-30.159-30.175a1.2,1.2,0,0,1,0-1.7,1.206,1.206,0,0,1,1.706-.009l30.158,30.175a1.2,1.2,0,0,1,0,1.7,1.171,1.171,0,0,1-.543.314,1.185,1.185,0,0,1-.318.043A1.189,1.189,0,0,1-3095.771-243.77Zm-32.882-15.041a1.341,1.341,0,0,1,.008-1.807,59.491,59.491,0,0,1,7.22-6.9l4.529,4.539a7.63,7.63,0,0,0-.729,2.91,7.639,7.639,0,0,0,7.983,7.983,7.707,7.707,0,0,0,2.917-.73l3.69,3.69a16.33,16.33,0,0,1-6.981,1.629C-3118.3-247.495-3123.148-252.729-3128.653-258.811Zm25.552,2.367a7.63,7.63,0,0,0,.729-2.91,7.638,7.638,0,0,0-7.982-7.983,7.475,7.475,0,0,0-2.911.73l-3.707-3.707a15.88,15.88,0,0,1,6.957-1.612c8.119,0,14.269,5.921,18.706,11.308a1.332,1.332,0,0,1-.043,1.756,56.142,56.142,0,0,1-7.211,6.956Zm-7.312,2.146a5.449,5.449,0,0,1-5-5,5.522,5.522,0,0,1,.212-1.994l6.769,6.77a5.208,5.208,0,0,1-1.568.236C-3110.136-254.283-3110.274-254.288-3110.414-254.3Zm4.029-5.421c.085.008.169.008.263.008a3.762,3.762,0,0,0,1.544-.331c0,.11.008.221.008.331a5.419,5.419,0,0,1-.237,1.578Zm-5.184-5.183a5.374,5.374,0,0,1,1.57-.237c.093,0,.178.008.263.008A3.981,3.981,0,0,0-3110-263.7c0,.127.008.255.017.382Z" transform="translate(3134 284)" fill="#6a687d"/>
  </g>
</svg>
