<svg xmlns="http://www.w3.org/2000/svg" xmlns:xlink="http://www.w3.org/1999/xlink" width="58" height="58.853" viewBox="0 0 58 58.853">
  <defs>
    <linearGradient id="linear-gradient" x1="0.8" y1="0.344" x2="0" y2="0.5" gradientUnits="objectBoundingBox">
      <stop offset="0" stop-color="#f46818"/>
      <stop offset="1" stop-color="#fdc14e"/>
    </linearGradient>
  </defs>
  <path id="ico-ad-filter-gradient-sh" d="M-208.164,161.195a52.358,52.358,0,0,1-7.745-6.837,1.277,1.277,0,0,0-1.4-.329,52.3,52.3,0,0,1-9.977,2.683,1.286,1.286,0,0,1-1.44-1.668,52.287,52.287,0,0,1,4.109-9.479,1.277,1.277,0,0,0-.121-1.436,52.339,52.339,0,0,1-5.634-8.659,1.287,1.287,0,0,1,1.141-1.885,52.328,52.328,0,0,1,10.284.978A1.276,1.276,0,0,0-217.62,134a52.331,52.331,0,0,1,6.494-8.034,1.287,1.287,0,0,1,2.146.5,52.329,52.329,0,0,1,2.248,10.084,1.276,1.276,0,0,0,.942,1.091,52.344,52.344,0,0,1,9.648,3.694,1.287,1.287,0,0,1,.185,2.2,52.321,52.321,0,0,1-8.9,5.254,1.277,1.277,0,0,0-.746,1.233,52.331,52.331,0,0,1-.532,10.317A1.287,1.287,0,0,1-208.164,161.195Zm32.7,12.808a52.328,52.328,0,0,0-5.866-8.5,1.276,1.276,0,0,1-.16-1.432,52.289,52.289,0,0,0,3.851-9.587,1.287,1.287,0,0,0-1.485-1.628,52.335,52.335,0,0,0-9.9,2.951,1.276,1.276,0,0,1-1.411-.291,52.346,52.346,0,0,0-7.927-6.625,1.287,1.287,0,0,0-2.008.909,52.318,52.318,0,0,0-.252,10.328,1.276,1.276,0,0,1-.713,1.252,52.369,52.369,0,0,0-8.75,5.492,1.287,1.287,0,0,0,.244,2.19,52.308,52.308,0,0,0,9.744,3.432,1.276,1.276,0,0,1,.971,1.065,52.305,52.305,0,0,0,2.519,10.019,1.287,1.287,0,0,0,2.158.445,52.375,52.375,0,0,0,6.275-8.207,1.275,1.275,0,0,1,1.312-.594,52.3,52.3,0,0,0,10.308.7A1.286,1.286,0,0,0-175.464,174Zm-39,2.4a30.492,30.492,0,0,0-1.994-5.679.743.743,0,0,1,.13-.83,30.491,30.491,0,0,0,3.634-4.8.75.75,0,0,0-.585-1.143,30.5,30.5,0,0,0-6.018.142.744.744,0,0,1-.749-.38,30.448,30.448,0,0,0-3.441-4.939.749.749,0,0,0-1.268.2,30.519,30.519,0,0,0-1.725,5.767.743.743,0,0,1-.593.595,30.491,30.491,0,0,0-5.76,1.746.75.75,0,0,0-.2,1.269,30.481,30.481,0,0,0,4.952,3.423.744.744,0,0,1,.382.747,30.479,30.479,0,0,0-.119,6.018.75.75,0,0,0,1.145.581,30.483,30.483,0,0,0,4.785-3.652.743.743,0,0,1,.829-.133,30.509,30.509,0,0,0,5.687,1.974A.75.75,0,0,0-214.463,176.4Z" transform="translate(233.298 -125.581)" fill="url(#linear-gradient)"/>
</svg>
