<svg xmlns="http://www.w3.org/2000/svg" width="96.667" height="87.102" viewBox="0 0 96.667 87.102">
  <g id="ico-ad-trophey-outline-sh" transform="translate(-22.978 -51.48)">
    <path id="Trazado_390" data-name="Trazado 390" d="M61.526,58.263V88.306c0,16.022,12.745,29.377,28.766,29.585a29.153,29.153,0,0,0,29.54-29.15V58.263a3.783,3.783,0,0,0-3.783-3.783H65.309A3.783,3.783,0,0,0,61.526,58.263Z" transform="translate(-19.368)" fill="none" stroke="#4e5bf9" stroke-linecap="round" stroke-miterlimit="10" stroke-width="6"/>
    <line id="Línea_21" data-name="Línea 21" y2="17.053" transform="translate(71.311 118.529)" fill="none" stroke="#4e5bf9" stroke-linecap="round" stroke-miterlimit="10" stroke-width="6"/>
    <line id="Línea_22" data-name="Línea 22" x1="31.486" transform="translate(55.568 135.582)" fill="none" stroke="#4e5bf9" stroke-linecap="round" stroke-miterlimit="10" stroke-width="6"/>
    <path id="Trazado_391" data-name="Trazado 391" d="M42.158,71.661H29.768A3.776,3.776,0,0,0,26,75.779c.869,9.192,6.807,21.889,16.159,21.889" transform="translate(0 -9.362)" fill="none" stroke="#4e5bf9" stroke-linecap="round" stroke-miterlimit="10" stroke-width="6"/>
    <path id="Trazado_392" data-name="Trazado 392" d="M189.64,71.661h12.391a3.776,3.776,0,0,1,3.769,4.118c-.869,9.192-6.807,21.889-16.159,21.889" transform="translate(-89.176 -9.362)" fill="none" stroke="#4e5bf9" stroke-linecap="round" stroke-miterlimit="10" stroke-width="6"/>
  </g>
</svg>
