<svg xmlns="http://www.w3.org/2000/svg" xmlns:xlink="http://www.w3.org/1999/xlink" width="25.112" height="48.083" viewBox="0 0 25.112 48.083">
  <defs>
    <linearGradient id="linear-gradient" x1="0.5" y1="0.093" x2="0.5" y2="1" gradientUnits="objectBoundingBox">
      <stop offset="0" stop-color="#fdc14e"/>
      <stop offset="1" stop-color="#f46818"/>
    </linearGradient>
  </defs>
  <path id="ico-ad_lock-gradient-sh" data-name="ico-ad=lock-gradient-sh" d="M-183.267,590.3l-5.015-22.623a.859.859,0,0,1,.3-.845c4.7-3.91,6.423-11.26,1.171-18.217a.427.427,0,0,0-.082-.082c-10.026-7.586-21.04-.6-21.04,8.954a12.129,12.129,0,0,0,4.393,9.345.86.86,0,0,1,.3.847l-5.015,22.622a2.548,2.548,0,0,0,2.487,3.1h20.015A2.547,2.547,0,0,0-183.267,590.3Z" transform="translate(208.318 -545.319)" fill="url(#linear-gradient)"/>
</svg>
