<svg xmlns="http://www.w3.org/2000/svg" width="87.501" height="103.312" viewBox="0 0 87.501 103.312">
  <path id="ico-ad-money-outline-sh" d="M-3239-1952.086c0-22.526,25.387-55.514,40.751-55.514s40.75,32.988,40.75,55.514c0,9.179-8.043,21.4-40.75,21.4S-3239-1942.906-3239-1952.086Zm18.967-61.756c6.189,0,11.895,5.467,18.146,5.467l-18.354,1.851C-3227.608-2006.523-3226.223-2013.842-3220.034-2013.842Zm8.462-11.907c0-3,26.646-3,26.646,0,0,7.364-8.3,18.149-13.323,18.149S-3211.572-2018.385-3211.572-2025.749Z" transform="translate(3242 2031)" fill="rgba(0,0,0,0)" stroke="#4e5bf9" stroke-miterlimit="10" stroke-width="6"/>
</svg>
