<svg xmlns="http://www.w3.org/2000/svg" xmlns:xlink="http://www.w3.org/1999/xlink" width="51.344" height="51.344" viewBox="0 0 51.344 51.344">
  <defs>
    <linearGradient id="linear-gradient" x1="0.25" y1="0.17" x2="0.732" y2="0.827" gradientUnits="objectBoundingBox">
      <stop offset="0" stop-color="#fdc14e"/>
      <stop offset="1" stop-color="#f46818"/>
    </linearGradient>
  </defs>
  <path id="ico-ad-trophey-gradient-sh" d="M166.662,398.212l3.925,5.519a.929.929,0,0,0,1.144.307l6.159-2.818a.929.929,0,0,1,1.312.758l.639,6.742a.93.93,0,0,0,.838.837l6.742.639a.93.93,0,0,1,.758,1.312l-2.818,6.159a.93.93,0,0,0,.307,1.144l5.52,3.925a.93.93,0,0,1,0,1.515l-5.52,3.925a.93.93,0,0,0-.307,1.144l2.818,6.159a.929.929,0,0,1-.758,1.312l-6.742.639a.93.93,0,0,0-.838.837l-.639,6.742a.929.929,0,0,1-1.312.758l-6.159-2.818a.93.93,0,0,0-1.144.307l-3.925,5.52a.93.93,0,0,1-1.515,0l-3.924-5.52a.93.93,0,0,0-1.144-.307l-6.159,2.818a.929.929,0,0,1-1.312-.758l-.639-6.742a.93.93,0,0,0-.838-.837l-6.742-.639a.929.929,0,0,1-.757-1.312l2.818-6.159a.929.929,0,0,0-.306-1.144l-5.52-3.925a.929.929,0,0,1,0-1.515l5.52-3.925a.929.929,0,0,0,.306-1.144l-2.818-6.159a.93.93,0,0,1,.757-1.312l6.742-.639a.93.93,0,0,0,.838-.837l.639-6.742a.929.929,0,0,1,1.312-.758l6.159,2.818a.929.929,0,0,0,1.144-.307l3.924-5.519A.929.929,0,0,1,166.662,398.212Z" transform="translate(-140.232 -397.82)" fill="url(#linear-gradient)"/>
</svg>
