<svg xmlns="http://www.w3.org/2000/svg" width="75.477" height="107.043" viewBox="0 0 75.477 107.043">
  <path id="ico-ad-lock-outline-sh" d="M403.51-61.872a6.673,6.673,0,0,0-4.746-1.966h-2.356v-11.99A28.7,28.7,0,0,0,367.736-104.5a28.7,28.7,0,0,0-28.672,28.672v5.317a3,3,0,0,0,3,3,3,3,0,0,0,3-3v-5.317A22.7,22.7,0,0,1,367.736-98.5a22.7,22.7,0,0,1,22.672,22.672v11.99H336.72c-.089,0-.176,0-.209,0a6.725,6.725,0,0,0-6.506,6.922l1.631,52.95a6.689,6.689,0,0,0,6.714,6.506h58.781a6.691,6.691,0,0,0,6.715-6.508l1.63-52.968,0-.19A6.677,6.677,0,0,0,403.51-61.872ZM397.849-4.154a.715.715,0,0,1-.718.7H338.35a.714.714,0,0,1-.717-.693L336-57.1a.722.722,0,0,1,.717-.74h62.043a.721.721,0,0,1,.715.74Z" transform="translate(-330.002 104.5)" fill="#4e5bf9"/>
</svg>
