<svg xmlns="http://www.w3.org/2000/svg" xmlns:xlink="http://www.w3.org/1999/xlink" width="172" height="92" viewBox="0 0 172 92">
  <defs>
    <clipPath id="clip-instacart-logo-surveyhoney">
      <rect width="172" height="92"/>
    </clipPath>
  </defs>
  <g id="instacart-logo-surveyhoney" clip-path="url(#clip-instacart-logo-surveyhoney)">
    <g id="logos" transform="translate(11 31)">
      <g id="Logo" transform="translate(0 0)">
        <path id="Carrot" d="M39.912,301.062c1.788,1.788,3.2,4.694,2.384,6.407-2.21,4.619-18.7,12.715-20.09,11.324-1.416-1.391,6.705-17.9,11.324-20.115,1.714-.82,4.619.6,6.382,2.384Z" transform="translate(-22.042 -289.116)" fill="#a7aefa"/>
        <path id="Leaves" d="M95.755,270.88h0a2.829,2.829,0,0,0-2.111-2.26c-2.012-.224-5.165,3.3-4.942,4.172s4.694,2.334,6.357,1.118c.869-.6.969-1.937.7-3.03Zm-6.208-9.809c1.49.4,2.98,1.44,3.179,2.98.323,2.806-4.644,7.251-5.811,6.929s-3.253-6.556-1.589-8.915c.869-1.192,2.732-1.366,4.222-.993Z" transform="translate(-69.143 -260.895)" fill="#737efa"/>
      </g>
      <g id="Logotype" transform="translate(35.177 5.34)">
        <path id="Trazado_39" data-name="Trazado 39" d="M261.12,309.508l-1.465-.224c-1.416-.2-2.21-.671-2.21-1.49,0-.944,1.068-1.54,2.632-1.54a6.467,6.467,0,0,1,2.881.844l.174.1a1.416,1.416,0,0,0,1.862-.6l.124-.223a1.433,1.433,0,0,0-.546-1.962c-.025,0-.025-.025-.05-.025a9.573,9.573,0,0,0-4.42-1.192c-3.75,0-6.159,1.788-6.159,4.718,0,2.384,1.714,3.9,4.967,4.346l1.49.2c1.565.224,2.334.7,2.334,1.416s-.373,1.589-2.806,1.589a7.066,7.066,0,0,1-3.8-1.043,1.5,1.5,0,0,0-.72-.2,1.42,1.42,0,0,0-1.192.671l-.074.124a1.468,1.468,0,0,0-.174,1.117,1.4,1.4,0,0,0,.671.869,11.777,11.777,0,0,0,5.339,1.465c3.924,0,6.333-1.714,6.333-4.718C266.21,311.37,264.5,310,261.12,309.508Z" transform="translate(-231.516 -298.035)" fill="#737efa"/>
        <path id="Trazado_40" data-name="Trazado 40" d="M429.569,314.619a1.469,1.469,0,0,0-1.118-.5,1.386,1.386,0,0,0-.82.248,4.815,4.815,0,0,1-2.533.77c-2.384,0-4.048-1.863-4.048-4.42a4.137,4.137,0,0,1,4.048-4.445,4.477,4.477,0,0,1,2.483.745,1.538,1.538,0,0,0,1.912-.224l.124-.149a1.612,1.612,0,0,0-.05-2.285,1.367,1.367,0,0,0-.224-.174A7.49,7.49,0,0,0,425.174,303a7.674,7.674,0,1,0,0,15.347,7.547,7.547,0,0,0,4.172-1.192,1.634,1.634,0,0,0,.447-2.26c-.05-.05-.1-.124-.149-.174Z" transform="translate(-354.47 -297.881)" fill="#737efa"/>
        <path id="Trazado_41" data-name="Trazado 41" d="M165.755,282.4a2.067,2.067,0,0,0-2.061,2.111v.025a2.021,2.021,0,0,0,1.987,2.111h.1a2.1,2.1,0,0,0,.223-4.2h-.223v-.05Z" transform="translate(-163.692 -282.4)" fill="#737efa"/>
        <path id="Trazado_42" data-name="Trazado 42" d="M167.534,303.7h-1.242a1.1,1.1,0,0,0-1.093,1.093v12.64a1.1,1.1,0,0,0,1.093,1.093h1.242a1.1,1.1,0,0,0,1.093-1.093v-12.64A1.1,1.1,0,0,0,167.534,303.7Z" transform="translate(-164.826 -298.41)" fill="#737efa"/>
        <path id="Trazado_43" data-name="Trazado 43" d="M318.2,302.441a2.989,2.989,0,0,1-2.98-2.98v-5.712h3a1.1,1.1,0,0,0,1.093-1.093h0v-.993a1.1,1.1,0,0,0-1.093-1.093H315.2v-3.278A1.1,1.1,0,0,0,314.1,286.2h-1.316a1.1,1.1,0,0,0-1.093,1.093v11.97a6.371,6.371,0,0,0,6.208,6.506h.05a1.378,1.378,0,0,0,1.366-1.366v-.869A1.108,1.108,0,0,0,318.2,302.441Z" transform="translate(-274.94 -285.256)" fill="#737efa"/>
        <path id="Trazado_44" data-name="Trazado 44" d="M196.729,303.193a6.658,6.658,0,0,0-6.829,6.482v7.376a1.1,1.1,0,0,0,1.093,1.093h1.242a1.1,1.1,0,0,0,1.093-1.093h0v-6.8c0-2.285,1.366-3.775,3.377-3.775s3.377,1.515,3.377,3.775v6.8a1.1,1.1,0,0,0,1.093,1.093h1.242a1.1,1.1,0,0,0,1.093-1.093V309.7a6.652,6.652,0,0,0-6.78-6.506Z" transform="translate(-183.392 -298.027)" fill="#737efa"/>
        <path id="Trazado_45" data-name="Trazado 45" d="M553.415,303.434a13.947,13.947,0,0,0-2.285-.149h-.174a6.55,6.55,0,0,0-6.556,6.556v7.276a1.1,1.1,0,0,0,1.093,1.093h1.242a1.1,1.1,0,0,0,1.093-1.093v-7.152a3.269,3.269,0,0,1,3.079-3.427h.224a4.986,4.986,0,0,1,1.043.124h.3a1.509,1.509,0,0,0,1.465-1.167c.1-.372.149-.646.224-.894a1.032,1.032,0,0,0-.124-.77A1.046,1.046,0,0,0,553.415,303.434Z" transform="translate(-449.857 -298.095)" fill="#737efa"/>
        <path id="Trazado_46" data-name="Trazado 46" d="M597.9,293.749a1.1,1.1,0,0,0,1.093-1.093h0v-.993a1.1,1.1,0,0,0-1.093-1.093h-3v-3.278A1.1,1.1,0,0,0,593.8,286.2h-1.316a1.1,1.1,0,0,0-1.093,1.093v11.97a6.371,6.371,0,0,0,6.208,6.506h.05a1.378,1.378,0,0,0,1.366-1.366h0v-.869a1.108,1.108,0,0,0-1.118-1.093,2.989,2.989,0,0,1-2.98-2.98v-5.712Z" transform="translate(-485.18 -285.256)" fill="#737efa"/>
        <path id="Trazado_47" data-name="Trazado 47" d="M485.7,304.389h0a7.49,7.49,0,0,0-4.172-1.192h-.124a7.548,7.548,0,0,0-4.172,1.192h0a7.94,7.94,0,0,0,.3,13.162,7.261,7.261,0,0,0,3.651.993,5.622,5.622,0,0,0,4.42-1.962v.521A1.1,1.1,0,0,0,486.7,318.2h1.266a1.1,1.1,0,0,0,1.093-1.093V310.9A7.331,7.331,0,0,0,485.7,304.389Zm-2.856,10.678a5.041,5.041,0,0,1-1.192.224h-.323a5.041,5.041,0,0,1-1.192-.224,4.241,4.241,0,0,1-2.682-4.172,4.143,4.143,0,0,1,3.626-4.4h.844a4.162,4.162,0,0,1,3.626,4.4A4.283,4.283,0,0,1,482.848,315.067Z" transform="translate(-396.848 -298.031)" fill="#737efa"/>
        <path id="Trazado_48" data-name="Trazado 48" d="M360.171,304.389h0A7.49,7.49,0,0,0,356,303.2h-.149a7.548,7.548,0,0,0-4.172,1.192h0a7.973,7.973,0,0,0,.348,13.162,7.261,7.261,0,0,0,3.651.993,5.538,5.538,0,0,0,4.4-1.962v.521a1.1,1.1,0,0,0,1.093,1.093h1.242A1.1,1.1,0,0,0,363.5,317.1V310.9A7.309,7.309,0,0,0,360.171,304.389Zm-2.856,10.678a5.041,5.041,0,0,1-1.192.224H355.8a5.041,5.041,0,0,1-1.192-.224,4.207,4.207,0,0,1-2.682-4.172,4.143,4.143,0,0,1,3.626-4.4h.869a4.162,4.162,0,0,1,3.626,4.4A4.375,4.375,0,0,1,357.315,315.067Z" transform="translate(-302.505 -298.031)" fill="#737efa"/>
      </g>
    </g>
  </g>
</svg>
