<svg xmlns="http://www.w3.org/2000/svg" xmlns:xlink="http://www.w3.org/1999/xlink" width="172" height="92" viewBox="0 0 172 92">
  <defs>
    <clipPath id="clip-lyft-logo-surveyhoney">
      <rect width="172" height="92"/>
    </clipPath>
  </defs>
  <g id="lyft-logo-surveyhoney" clip-path="url(#clip-lyft-logo-surveyhoney)">
    <path id="Trazado_371" data-name="Trazado 371" d="M53.327,30.646V45.584a1.568,1.568,0,0,1-3.135,0V30.646H40.032v17.52c0,3.152,1.056,7.142,5.952,8.45,4.879,1.291,7.679-1.408,7.679-1.408-.268,1.777-1.911,3.085-4.611,3.353a14.221,14.221,0,0,1-5.935-1.023v9.288a21.18,21.18,0,0,0,10.244.62c6.22-1.19,10.143-6.388,10.143-13.329V30.579H53.327M92.206,43.723v-2.9h3.152V30.68H91.9a13.57,13.57,0,0,0-26.825,2.9V57.27a8.543,8.543,0,0,0,6.84-1.861,10.081,10.081,0,0,0,3.269-7.779v-.888h5.13V36.581h-5.13V33.513a3.454,3.454,0,0,1,6.907,0V43.69A13.584,13.584,0,0,0,95.66,57.27V47.144A3.431,3.431,0,0,1,92.206,43.723ZM28.011,20.8H38.288V48.384c0,4.376,1.978,6.958,3.588,8.064a8.942,8.942,0,0,1-10.6-.386,10.082,10.082,0,0,1-3.269-7.779Z" transform="translate(23.989 1.983)" fill="#737efa"/>
  </g>
</svg>
