<svg xmlns="http://www.w3.org/2000/svg" xmlns:xlink="http://www.w3.org/1999/xlink" width="172" height="92" viewBox="0 0 172 92">
  <defs>
    <clipPath id="clip-mit-logo-surveyhoney">
      <rect width="172" height="92"/>
    </clipPath>
  </defs>
  <g id="mit-logo-surveyhoney" clip-path="url(#clip-mit-logo-surveyhoney)">
    <g id="Grupo_215" data-name="Grupo 215" transform="translate(18 31)">
      <path id="Trazado_56" data-name="Trazado 56" d="M909.8,526.466v-5.75h6.11v5.75Z" transform="translate(-880.128 -520.615)" fill="#737efa" fill-rule="evenodd"/>
      <path id="Trazado_57" data-name="Trazado 57" d="M922.633,552.114V532.467h6.07v19.647Z" transform="translate(-883.018 -523.262)" fill="#737efa" fill-rule="evenodd"/>
      <path id="Trazado_58" data-name="Trazado 58" d="M871.5,520.715h6.07v28.753H871.5V520.715Z" transform="translate(-871.504 -520.615)" fill="#737efa" fill-rule="evenodd"/>
      <path id="Trazado_59" data-name="Trazado 59" d="M897.069,549.468V520.715h6.069v28.753Z" transform="translate(-877.261 -520.615)" fill="#737efa" fill-rule="evenodd"/>
      <path id="Trazado_60" data-name="Trazado 60" d="M884.286,540.363V520.715h6.07v19.648Z" transform="translate(-874.383 -520.615)" fill="#737efa" fill-rule="evenodd"/>
      <path id="Trazado_61" data-name="Trazado 61" d="M922.581,526.466v-5.75h16.013v5.75Z" transform="translate(-883.007 -520.615)" fill="#737efa" fill-rule="evenodd"/>
      <path id="Trazado_62" data-name="Trazado 62" d="M966.373,520.6v6.922h-1.657l.108-4.932.02-.7-.059.246c-.088.391-.1.441-.178.735l-1.3,4.647h-1.49l-1.255-4.451-.3-1.236c.03.549.03.666.059,1.323l.089,4.364h-1.677V520.6h2.53l1.059,3.883.245,1.107c.1-.48.109-.53.187-.853l1.108-4.138Z" transform="translate(-891.146 -520.589)" fill="#737efa" fill-rule="evenodd"/>
      <path id="Trazado_63" data-name="Trazado 63" d="M970.242,524.338a1.423,1.423,0,0,1,.539-1.137,2.631,2.631,0,0,1,1.677-.451c.627,0,2.146.147,2.146,1.471V527.2c0,.549.03.628.148.8h-1.481v-.47a2.409,2.409,0,0,1-1.57.607,1.553,1.553,0,0,1-1.676-1.558,1.655,1.655,0,0,1,1.078-1.471,13.338,13.338,0,0,1,2.021-.471v-.274c-.02-.235-.04-.628-.578-.628-.667,0-.755.412-.8.6Zm1.911,1.54c-.255.1-.648.246-.648.638a.548.548,0,0,0,.569.52.99.99,0,0,0,.521-.167c.5-.314.519-.784.529-1.313l-.971.323Z" transform="translate(-893.691 -521.073)" fill="#737efa" fill-rule="evenodd"/>
      <path id="Trazado_64" data-name="Trazado 64" d="M977.773,526.271a2.186,2.186,0,0,0,1.491.706c.363,0,.912-.118.912-.5a.313.313,0,0,0-.2-.294,3.251,3.251,0,0,0-.872-.2,5.9,5.9,0,0,1-.687-.157,1.927,1.927,0,0,1-.853-.442,1.384,1.384,0,0,1-.382-.961c0-.844.725-1.716,2.156-1.716a3.749,3.749,0,0,1,2.286.765l-.931.863a2.145,2.145,0,0,0-1.285-.51c-.588,0-.725.236-.725.382,0,.294.323.353.813.442,1.031.186,2.226.46,2.226,1.677s-1.215,1.794-2.422,1.794a3.374,3.374,0,0,1-2.48-.99l.951-.863Z" transform="translate(-895.222 -521.065)" fill="#737efa" fill-rule="evenodd"/>
      <path id="Trazado_65" data-name="Trazado 65" d="M984.366,526.271a2.185,2.185,0,0,0,1.49.706c.363,0,.912-.118.912-.5a.313.313,0,0,0-.2-.294,3.252,3.252,0,0,0-.873-.2,5.908,5.908,0,0,1-.686-.157,1.923,1.923,0,0,1-.853-.442,1.381,1.381,0,0,1-.383-.961c0-.844.725-1.716,2.158-1.716a3.75,3.75,0,0,1,2.285.765l-.932.863a2.145,2.145,0,0,0-1.285-.51c-.588,0-.725.236-.725.382,0,.294.324.353.813.442,1.03.186,2.226.46,2.226,1.677s-1.215,1.794-2.422,1.794a3.373,3.373,0,0,1-2.481-.99l.951-.863Z" transform="translate(-896.707 -521.065)" fill="#737efa" fill-rule="evenodd"/>
      <path id="Trazado_66" data-name="Trazado 66" d="M990.806,524.338a1.424,1.424,0,0,1,.54-1.137,2.628,2.628,0,0,1,1.677-.451c.627,0,2.147.147,2.147,1.471V527.2c0,.549.029.628.147.8h-1.481v-.47a2.41,2.41,0,0,1-1.569.607,1.553,1.553,0,0,1-1.677-1.558,1.654,1.654,0,0,1,1.079-1.471,13.275,13.275,0,0,1,2.019-.471v-.274c-.019-.235-.04-.628-.579-.628-.666,0-.755.412-.794.6Zm1.913,1.54c-.256.1-.648.246-.648.638a.547.547,0,0,0,.569.52.989.989,0,0,0,.52-.167c.5-.314.519-.784.529-1.313l-.97.323Z" transform="translate(-898.323 -521.073)" fill="#737efa" fill-rule="evenodd"/>
      <path id="Trazado_67" data-name="Trazado 67" d="M1002.645,526.8a2.941,2.941,0,0,1-.8.912,2.543,2.543,0,0,1-1.47.46,2.473,2.473,0,0,1-2.54-2.676,2.505,2.505,0,0,1,2.569-2.746,2.449,2.449,0,0,1,2.187,1.226l-1.118.637a1.243,1.243,0,0,0-.432-.538,1,1,0,0,0-.569-.177c-.814,0-1.089.931-1.089,1.549,0,.677.334,1.53,1.138,1.53a1.007,1.007,0,0,0,.765-.353,1.1,1.1,0,0,0,.226-.411l1.137.588Z" transform="translate(-899.953 -521.073)" fill="#737efa" fill-rule="evenodd"/>
      <path id="Trazado_68" data-name="Trazado 68" d="M1005.861,520.586v2.354a1.96,1.96,0,0,1,1.471-.677,1.713,1.713,0,0,1,1.088.363,1.773,1.773,0,0,1,.53,1.529v3.363h-1.5v-2.677a2.473,2.473,0,0,0-.07-.784.709.709,0,0,0-.706-.51.785.785,0,0,0-.618.294,1.987,1.987,0,0,0-.2,1.127v2.549h-1.511v-6.932Z" transform="translate(-901.421 -520.586)" fill="#737efa" fill-rule="evenodd"/>
      <path id="Trazado_69" data-name="Trazado 69" d="M1015.042,522.927h1.51v5.118h-1.51v-.49a1.392,1.392,0,0,1-.511.4,2.117,2.117,0,0,1-.97.235,1.559,1.559,0,0,1-1.3-.539,2.237,2.237,0,0,1-.313-1.51v-3.216h1.519V526.1a1.015,1.015,0,0,0,.118.607.747.747,0,0,0,.6.255,1.017,1.017,0,0,0,.521-.127.735.735,0,0,0,.343-.726v-3.187Z" transform="translate(-903.131 -521.113)" fill="#737efa" fill-rule="evenodd"/>
      <path id="Trazado_70" data-name="Trazado 70" d="M1019.7,526.271a2.184,2.184,0,0,0,1.49.706c.363,0,.912-.118.912-.5a.312.312,0,0,0-.2-.294,3.232,3.232,0,0,0-.872-.2,5.888,5.888,0,0,1-.686-.157,1.922,1.922,0,0,1-.853-.442,1.381,1.381,0,0,1-.383-.961c0-.844.726-1.716,2.157-1.716a3.751,3.751,0,0,1,2.286.765l-.932.863a2.143,2.143,0,0,0-1.285-.51c-.588,0-.725.236-.725.382,0,.294.324.353.814.442,1.03.186,2.226.46,2.226,1.677s-1.216,1.794-2.422,1.794a3.372,3.372,0,0,1-2.481-.99l.951-.863Z" transform="translate(-904.665 -521.065)" fill="#737efa" fill-rule="evenodd"/>
      <path id="Trazado_71" data-name="Trazado 71" d="M1030.914,526.693a3.965,3.965,0,0,1-.617.766,2.813,2.813,0,0,1-1.932.725,2.446,2.446,0,0,1-2.588-2.648,2.561,2.561,0,0,1,2.628-2.823,2.482,2.482,0,0,1,1.842.736,3.424,3.424,0,0,1,.726,2.294h-3.657a1.153,1.153,0,0,0,1.167,1.275,1.355,1.355,0,0,0,1.295-.9l1.137.578Zm-1.5-1.892a1.214,1.214,0,0,0-.284-.726,1.064,1.064,0,0,0-.736-.284,1.038,1.038,0,0,0-.764.333,1.344,1.344,0,0,0-.3.677Z" transform="translate(-906.246 -521.065)" fill="#737efa" fill-rule="evenodd"/>
      <path id="Trazado_72" data-name="Trazado 72" d="M1033.634,521.016h1.5v1.6h.991v.921h-1v2.305c-.01.314-.01.579.392.579l.539-.02v1.176a4.758,4.758,0,0,1-.794.079,1.562,1.562,0,0,1-1.412-.5,1.97,1.97,0,0,1-.216-1.157v-2.47h-.745V522.6h.745v-1.588Z" transform="translate(-907.848 -520.683)" fill="#737efa" fill-rule="evenodd"/>
      <path id="Trazado_73" data-name="Trazado 73" d="M1037.354,521.016h1.5v1.6h.991v.921h-1v2.305c-.009.314-.009.579.392.579l.54-.02v1.176a4.769,4.769,0,0,1-.8.079,1.563,1.563,0,0,1-1.412-.5,1.978,1.978,0,0,1-.215-1.157v-2.47h-.745V522.6h.745v-1.588Z" transform="translate(-908.686 -520.683)" fill="#737efa" fill-rule="evenodd"/>
      <path id="Trazado_74" data-name="Trazado 74" d="M1041.875,526.271a2.185,2.185,0,0,0,1.49.706c.363,0,.913-.118.913-.5a.312.312,0,0,0-.2-.294,3.245,3.245,0,0,0-.872-.2,5.839,5.839,0,0,1-.687-.157,1.923,1.923,0,0,1-.853-.442,1.38,1.38,0,0,1-.382-.961c0-.844.725-1.716,2.156-1.716a3.749,3.749,0,0,1,2.286.765l-.932.863a2.143,2.143,0,0,0-1.284-.51c-.588,0-.725.236-.725.382,0,.294.323.353.813.442,1.03.186,2.226.46,2.226,1.677s-1.215,1.794-2.422,1.794a3.375,3.375,0,0,1-2.481-.99l.952-.863Z" transform="translate(-909.658 -521.065)" fill="#737efa" fill-rule="evenodd"/>
      <path id="Trazado_75" data-name="Trazado 75" d="M960.528,534.665v6.922H958.8v-6.922Z" transform="translate(-891.164 -523.757)" fill="#737efa" fill-rule="evenodd"/>
      <path id="Trazado_76" data-name="Trazado 76" d="M964.321,537.418a1.473,1.473,0,0,1,.51-.4,2.494,2.494,0,0,1,.931-.186,1.945,1.945,0,0,1,.913.206c.539.284.676.745.676,1.539v3.5h-1.5v-2.883a2.047,2.047,0,0,0-.069-.765.686.686,0,0,0-.676-.393c-.794,0-.794.638-.794,1.275v2.765H962.8v-5.109h1.52v.452Z" transform="translate(-892.064 -524.244)" fill="#737efa" fill-rule="evenodd"/>
      <path id="Trazado_77" data-name="Trazado 77" d="M970.484,540.338a2.19,2.19,0,0,0,1.492.707c.363,0,.912-.119.912-.5a.314.314,0,0,0-.2-.294,3.279,3.279,0,0,0-.872-.2,5.915,5.915,0,0,1-.686-.157,1.915,1.915,0,0,1-.854-.442,1.377,1.377,0,0,1-.382-.961c0-.843.725-1.715,2.157-1.715a3.746,3.746,0,0,1,2.285.765l-.931.862a2.144,2.144,0,0,0-1.285-.51c-.588,0-.726.235-.726.383,0,.294.324.352.813.441,1.03.187,2.226.461,2.226,1.677s-1.216,1.794-2.422,1.794a3.372,3.372,0,0,1-2.48-.991l.95-.863Z" transform="translate(-893.581 -524.233)" fill="#737efa" fill-rule="evenodd"/>
      <path id="Trazado_78" data-name="Trazado 78" d="M977.036,535.082h1.5v1.6h.99v.921h-1v2.305c-.009.314-.009.579.392.579l.54-.02v1.177a4.861,4.861,0,0,1-.794.078,1.565,1.565,0,0,1-1.412-.5,1.978,1.978,0,0,1-.216-1.157v-2.471h-.745v-.922h.745v-1.589Z" transform="translate(-895.102 -523.851)" fill="#737efa" fill-rule="evenodd"/>
      <path id="Trazado_79" data-name="Trazado 79" d="M981.518,534.653h1.491v1.166h-1.491v-1.166Zm0,1.8h1.491v5.129h-1.491v-5.129Z" transform="translate(-896.279 -523.754)" fill="#737efa" fill-rule="evenodd"/>
      <path id="Trazado_80" data-name="Trazado 80" d="M985.212,535.082h1.5v1.6h.99v.921h-1v2.305c-.009.314-.009.579.392.579l.54-.02v1.177a4.85,4.85,0,0,1-.794.078,1.566,1.566,0,0,1-1.413-.5,1.985,1.985,0,0,1-.216-1.157v-2.471h-.745v-.922h.745v-1.589Z" transform="translate(-896.944 -523.851)" fill="#737efa" fill-rule="evenodd"/>
      <path id="Trazado_81" data-name="Trazado 81" d="M992.715,536.993h1.511v5.119h-1.511v-.49a1.376,1.376,0,0,1-.51.4,2.106,2.106,0,0,1-.97.235,1.561,1.561,0,0,1-1.3-.538,2.241,2.241,0,0,1-.314-1.511v-3.216h1.52v3.177a1.017,1.017,0,0,0,.118.608.75.75,0,0,0,.6.255,1.01,1.01,0,0,0,.52-.128.733.733,0,0,0,.343-.726v-3.187Z" transform="translate(-898.103 -524.281)" fill="#737efa" fill-rule="evenodd"/>
      <path id="Trazado_82" data-name="Trazado 82" d="M997.336,535.082h1.5v1.6h.99v.921h-1v2.305c-.01.314-.01.579.393.579l.539-.02v1.177a4.842,4.842,0,0,1-.794.078,1.564,1.564,0,0,1-1.412-.5,1.978,1.978,0,0,1-.216-1.157v-2.471h-.745v-.922h.745v-1.589Z" transform="translate(-899.674 -523.851)" fill="#737efa" fill-rule="evenodd"/>
      <path id="Trazado_83" data-name="Trazado 83" d="M1006.474,540.76a4.045,4.045,0,0,1-.618.765,2.814,2.814,0,0,1-1.932.725,2.446,2.446,0,0,1-2.589-2.647,2.56,2.56,0,0,1,2.628-2.823,2.483,2.483,0,0,1,1.843.734,3.427,3.427,0,0,1,.725,2.295h-3.657a1.153,1.153,0,0,0,1.167,1.275,1.355,1.355,0,0,0,1.295-.9l1.137.579Zm-1.5-1.893a1.221,1.221,0,0,0-.284-.726,1.066,1.066,0,0,0-.735-.284,1.04,1.04,0,0,0-.765.332,1.347,1.347,0,0,0-.3.677Z" transform="translate(-900.742 -524.233)" fill="#737efa" fill-rule="evenodd"/>
      <path id="Trazado_84" data-name="Trazado 84" d="M1017.645,539.5a2.75,2.75,0,1,1-2.549-2.706,2.559,2.559,0,0,1,2.549,2.706Zm-3.726-1.01a1.859,1.859,0,0,0-.256,1c0,.814.393,1.529,1.236,1.529.814,0,1.216-.656,1.216-1.461a1.734,1.734,0,0,0-.422-1.285,1.1,1.1,0,0,0-.882-.285,1.018,1.018,0,0,0-.893.5Z" transform="translate(-903.177 -524.233)" fill="#737efa" fill-rule="evenodd"/>
      <path id="Trazado_85" data-name="Trazado 85" d="M1020.589,535.93a1.481,1.481,0,0,1,.215-.872,1.576,1.576,0,0,1,1.314-.52,6.814,6.814,0,0,1,.9.089v1.127h-.363c-.569,0-.6.117-.588.8h1.01v.921h-1v4.08h-1.5v-4.08h-.8v-.921h.814v-.628Z" transform="translate(-904.895 -523.728)" fill="#737efa" fill-rule="evenodd"/>
      <path id="Trazado_86" data-name="Trazado 86" d="M956.354,548.856h5.334v1.373h-1.795v5.559h-1.735v-5.559h-1.8v-1.373Z" transform="translate(-890.612 -526.952)" fill="#737efa" fill-rule="evenodd"/>
      <path id="Trazado_87" data-name="Trazado 87" d="M967.885,554.963a4.026,4.026,0,0,1-.618.765,2.811,2.811,0,0,1-1.932.726,2.447,2.447,0,0,1-2.589-2.647,2.561,2.561,0,0,1,2.628-2.824,2.486,2.486,0,0,1,1.844.736,3.427,3.427,0,0,1,.725,2.293h-3.658a1.153,1.153,0,0,0,1.168,1.275,1.354,1.354,0,0,0,1.294-.9l1.137.578Zm-1.5-1.892a1.216,1.216,0,0,0-.284-.725,1.059,1.059,0,0,0-.736-.285,1.04,1.04,0,0,0-.765.333,1.35,1.35,0,0,0-.3.677Z" transform="translate(-892.052 -527.431)" fill="#737efa" fill-rule="evenodd"/>
      <path id="Trazado_88" data-name="Trazado 88" d="M974.953,555.069a2.923,2.923,0,0,1-.8.913,2.551,2.551,0,0,1-1.471.46,2.474,2.474,0,0,1-2.54-2.677,2.5,2.5,0,0,1,2.569-2.745,2.447,2.447,0,0,1,2.187,1.226l-1.117.637a1.249,1.249,0,0,0-.432-.539,1,1,0,0,0-.569-.177c-.813,0-1.088.932-1.088,1.55,0,.677.333,1.529,1.137,1.529a1.007,1.007,0,0,0,.765-.353,1.081,1.081,0,0,0,.225-.412l1.137.588Z" transform="translate(-893.717 -527.44)" fill="#737efa" fill-rule="evenodd"/>
      <path id="Trazado_89" data-name="Trazado 89" d="M978.169,548.856v2.353a1.963,1.963,0,0,1,1.47-.676,1.719,1.719,0,0,1,1.089.363,1.776,1.776,0,0,1,.529,1.529v3.363h-1.5v-2.677a2.471,2.471,0,0,0-.068-.784.712.712,0,0,0-.706-.511.781.781,0,0,0-.617.3,1.978,1.978,0,0,0-.2,1.127v2.549h-1.511v-6.932Z" transform="translate(-895.185 -526.952)" fill="#737efa" fill-rule="evenodd"/>
      <path id="Trazado_90" data-name="Trazado 90" d="M985.848,551.621a1.468,1.468,0,0,1,.509-.4,2.491,2.491,0,0,1,.932-.187,1.944,1.944,0,0,1,.912.206c.539.285.676.745.676,1.54v3.5h-1.5V553.4a2.035,2.035,0,0,0-.069-.764.687.687,0,0,0-.676-.393c-.8,0-.8.638-.8,1.275v2.764h-1.509V551.17h1.52v.451Z" transform="translate(-896.912 -527.443)" fill="#737efa" fill-rule="evenodd"/>
      <path id="Trazado_91" data-name="Trazado 91" d="M996.991,553.7a2.75,2.75,0,1,1-2.549-2.706,2.558,2.558,0,0,1,2.549,2.706Zm-3.725-1.01a1.85,1.85,0,0,0-.255,1c0,.814.392,1.529,1.236,1.529.813,0,1.215-.657,1.215-1.461a1.733,1.733,0,0,0-.422-1.285,1.1,1.1,0,0,0-.882-.284,1.019,1.019,0,0,0-.892.5Z" transform="translate(-898.525 -527.432)" fill="#737efa" fill-rule="evenodd"/>
      <path id="Trazado_92" data-name="Trazado 92" d="M1001.366,548.868v6.923h-1.51v-6.923Z" transform="translate(-900.409 -526.955)" fill="#737efa" fill-rule="evenodd"/>
      <path id="Trazado_93" data-name="Trazado 93" d="M1008.6,553.7a2.751,2.751,0,1,1-2.55-2.706,2.559,2.559,0,0,1,2.55,2.706Zm-3.726-1.01a1.852,1.852,0,0,0-.256,1c0,.814.393,1.529,1.237,1.529.813,0,1.215-.657,1.215-1.461a1.73,1.73,0,0,0-.422-1.285,1.1,1.1,0,0,0-.882-.284,1.019,1.019,0,0,0-.892.5Z" transform="translate(-901.139 -527.432)" fill="#737efa" fill-rule="evenodd"/>
      <path id="Trazado_94" data-name="Trazado 94" d="M1014.465,555.613a2.179,2.179,0,0,1-1.354.432,2.08,2.08,0,0,1-1.167-.334,2.372,2.372,0,0,1-.952-2.117,2.242,2.242,0,0,1,2.177-2.511,1.785,1.785,0,0,1,1.373.559v-.48h1.412v4.921a1.687,1.687,0,0,1-.785,1.647,3.673,3.673,0,0,1-1.745.393,2.782,2.782,0,0,1-1.961-.638,1.574,1.574,0,0,1-.393-1.2h1.559a.759.759,0,0,0,.442.735,1.032,1.032,0,0,0,.48.1c.913,0,.913-.539.913-.961v-.549Zm-1.913-2.03c0,.431.029,1.324.961,1.324.765,0,.941-.6.941-1.324a2.124,2.124,0,0,0-.186-1,.9.9,0,0,0-.824-.373c-.716.03-.892.648-.892,1.373Z" transform="translate(-902.917 -527.454)" fill="#737efa" fill-rule="evenodd"/>
      <path id="Trazado_95" data-name="Trazado 95" d="M1023.148,551.2l-1.805,5.53a2.531,2.531,0,0,1-.48.932,1.308,1.308,0,0,1-1.088.412h-1.089v-1.2h.529c.246-.01.628-.01.628-.373a1.4,1.4,0,0,0-.068-.363l-1.529-4.942h1.608l.843,3.667.844-3.667Z" transform="translate(-904.55 -527.48)" fill="#737efa" fill-rule="evenodd"/>
      <path id="Trazado_96" data-name="Trazado 96" d="M909.866,552.078V532.43h6.07v19.647Z" transform="translate(-880.143 -523.253)" fill="#a7aefa" fill-rule="evenodd"/>
    </g>
  </g>
</svg>
