<svg xmlns="http://www.w3.org/2000/svg" xmlns:xlink="http://www.w3.org/1999/xlink" width="172" height="172" viewBox="0 0 172 172">
  <defs>
    <linearGradient id="linear-gradient" y1="0.5" x2="1" y2="0.5" gradientUnits="objectBoundingBox">
      <stop offset="0" stop-color="#f46818"/>
      <stop offset="1" stop-color="#fbb029"/>
    </linearGradient>
    <clipPath id="clip-opinion-ico-surveyhoney">
      <rect width="172" height="172"/>
    </clipPath>
  </defs>
  <g id="opinion-ico-surveyhoney" clip-path="url(#clip-opinion-ico-surveyhoney)">
    <g id="Grupo_162" data-name="Grupo 162" transform="translate(-785.32 -1917)">
      <path id="Trazado_297" data-name="Trazado 297" d="M1318.447,25.673a503.476,503.476,0,0,0-64.811-2.422,4.486,4.486,0,0,0-4.328,4.175q-1.321,18.166-1.02,36.239a4.492,4.492,0,0,0,4.4,4.425q20.888.367,41.775-.361a4.469,4.469,0,0,1,2.474.645l9.9,6.013s0-3.471,0-5.584a1.676,1.676,0,0,1,1.593-1.673q4.963-.258,9.919-.576a4.474,4.474,0,0,0,4.167-4.02,176.8,176.8,0,0,0-.054-32.793A4.491,4.491,0,0,0,1318.447,25.673Z" transform="translate(-380.603 1929.944)" fill="url(#linear-gradient)"/>
      <g id="Grupo_159" data-name="Grupo 159" transform="translate(799.32 1962.96)">
        <path id="Trazado_300" data-name="Trazado 300" d="M1251.722,50.724a12.2,12.2,0,0,0-11.794-11.281c-6.652-.213-13.434-.322-20.158-.322a680.577,680.577,0,0,0-69.555,3.654,12.273,12.273,0,0,0-10.919,11.01,240.487,240.487,0,0,0-.038,48.422,12.208,12.208,0,0,0,11.349,10.9c2.921.193,5.9.377,8.892.549v16.2l13.43-8.781,9.694-6.339c12.58.451,25.3.68,37.84.68,6.886,0,13.865-.069,20.744-.2a12.194,12.194,0,0,0,11.983-11.96C1253.56,85.922,1253.065,68.249,1251.722,50.724Zm-7.209,52.342a3.547,3.547,0,0,1-3.476,3.465q-10.286.2-20.573.2-19.575,0-39.152-.733c-.044,0-.089,0-.133,0a3.536,3.536,0,0,0-1.936.576l-11.064,7.234v-5.015a3.546,3.546,0,0,0-3.362-3.54q-6.818-.363-13.637-.812a3.548,3.548,0,0,1-3.292-3.161,230.526,230.526,0,0,1,.048-46.667,3.559,3.559,0,0,1,3.169-3.2,668.749,668.749,0,0,1,68.664-3.608q9.965,0,19.879.317a3.545,3.545,0,0,1,3.418,3.269Q1245.054,77.3,1244.513,103.067Z" transform="translate(-1138.056 -39.121)" fill="#fff"/>
        <path id="Trazado_301" data-name="Trazado 301" d="M1230.713,78.749l-59.146,1.98a1.86,1.86,0,0,0,.061,3.719h.063l59.146-1.98a1.86,1.86,0,0,0-.125-3.717Z" transform="translate(-1150.107 -54.179)" fill="#fff"/>
        <path id="Trazado_302" data-name="Trazado 302" d="M1214.267,104.095l-33.192-.843h-.048a1.86,1.86,0,0,0-.047,3.719l33.192.843h.048a1.86,1.86,0,0,0,.047-3.719Z" transform="translate(-1153.678 -63.491)" fill="#fff"/>
      </g>
    </g>
  </g>
</svg>
