<svg xmlns="http://www.w3.org/2000/svg" xmlns:xlink="http://www.w3.org/1999/xlink" width="172" height="92" viewBox="0 0 172 92">
  <defs>
    <clipPath id="clip-paperless-logo-surveyhoney">
      <rect width="172" height="92"/>
    </clipPath>
  </defs>
  <g id="paperless-logo-surveyhoney" clip-path="url(#clip-paperless-logo-surveyhoney)">
    <g id="Grupo_219" data-name="Grupo 219" transform="translate(-17.447 -222.3)">
      <path id="Trazado_189" data-name="Trazado 189" d="M239.571,375.273a2.278,2.278,0,0,1-1.748,2.262h-4.113v3.136H232.4v-7.763h5.269A2.319,2.319,0,0,1,239.571,375.273Zm-1.337,0c0-.437-.437-1.028-.874-1.028h-3.727v1.9h3.881C237.875,376.224,238.235,375.71,238.235,375.273Zm14.728,1.311a4.479,4.479,0,0,1-8.945,0c0-2.339,2.262-3.881,4.472-3.881C250.624,372.7,252.963,374.245,252.963,376.584Zm-1.388,0c0-1.311-1.465-2.416-3.084-2.416-1.7,0-3.084,1.105-3.084,2.416,0,1.825,1.182,2.853,3.084,2.853A2.717,2.717,0,0,0,251.575,376.584Zm13.623,1.542c.077,1.182-1.028,2.7-3.6,2.7a7.889,7.889,0,0,1-4.678-1.7l.874-1.028a5.987,5.987,0,0,0,3.65,1.388c.874,0,2.262-.36,2.262-1.182a.729.729,0,0,0-.591-.8l-3.8-.591a2.2,2.2,0,0,1-1.979-2.056c0-1.7,2.185-2.262,3.881-2.262a6.232,6.232,0,0,1,3.521,1.311l-.951.951a6.4,6.4,0,0,0-3.136-1.028c-.8,0-1.825.437-1.825.951-.077.514.591.8,1.182.874l2.647.283C263.81,376.224,265.121,376.815,265.2,378.126Zm12.081-3.958h-3.29v6.452h-1.337v-6.452h-3.29v-1.234h7.917Z" transform="translate(-153.016 -92.35)" fill="#737efa"/>
      <path id="Trazado_190" data-name="Trazado 190" d="M55.069,256.191a7.064,7.064,0,0,0-4.164-6.529l-.36-.154.36-.231a9.816,9.816,0,0,1,1.311-.591c.668-.154.668-.154.36-.231h-.591a5.755,5.755,0,0,0-2.57.514H49.26a14.5,14.5,0,0,0-4.035-.668h-.591c-6.452.514-11.567,3.958-15.371,10.256-2.647,4.4-3.136,9.228-2.647,11.053a3.807,3.807,0,0,0,4.113,3.084,3.354,3.354,0,0,0,.874-.077c3.881-.437,6.657-4.678,8.636-7.763l.154-.231a12.505,12.505,0,0,0,6.3.514c.154,0,.231-.077.283-.077.154,0,.231-.077.36-.077C51.393,264.031,55.069,260.663,55.069,256.191Zm-16.039,5.5-.154.231-.154-.077A6.126,6.126,0,0,1,37.1,259.79c-.077-.154-.154-.283-.154-.231h0v.231A4.111,4.111,0,0,0,38.13,263l.154.154s-4.241,7.171-6.529,7.762a4.079,4.079,0,0,1-.951.154c-.72,0-1.9-.283-2.056-2.339,0-.154-.591-3.881,2.776-9.3,3.6-5.938,6.966-8.636,11.8-9.433a11.41,11.41,0,0,1,4.55.231l-.154.154-.283.283C43.862,253.415,41.163,257.733,39.03,261.692Zm13.314-5.578a9.2,9.2,0,0,1-5.86,7.248h-.077a13.644,13.644,0,0,1-2.339.36,9.3,9.3,0,0,1-2.93-.514h0c1.979-3.521,4.909-8.636,8.277-12.312l.154-.154.154.077a5.478,5.478,0,0,1,2.776,4.6C52.421,255.626,52.421,255.831,52.344,256.114ZM172.2,263.748c-1.825,3.084-4.113,5.269-7.094,6.015.874-.951,1.182-3.881,1.234-5.423.077-.591.283-3.521,1.388-3.8.231-.077.283-.36.231-.591-.231-.668-.951-.668-1.619-.668-2.93,0-4.755,1.9-6.889,3.881l-.231.231h0l-.077.077-1.311,1.388a30.76,30.76,0,0,1-5.115,3.881,19.341,19.341,0,0,1-2.493,1.028c1.028-.951,1.182-3.213,1.234-4.4.231-2.056.077-4.241,1.105-4.678.154-.077.231-.437.154-.668a1.137,1.137,0,0,0-1.182-.668c-2.7.077-4.909,1.465-6.966,3.727l-.283.36-.231.231c-1.748,1.748-5.86,6.452-9.947,6.452-1.542,0-3.521-.077-3.521-1.9,4.755-1.542,6.966-4.755,6.966-6.58a2.578,2.578,0,0,0-2.647-2.7,4.388,4.388,0,0,0-2.185.437c-1.825.72-4.472,3.881-4.164,7.968v.514a10.9,10.9,0,0,1-5.115,2.056c-2.416.154-3.727-.437-3.881-3.007,0-.36-.077-.514.077-.72,4.4-4.4,7.968-9.587,9.228-12.749.591-1.542,1.105-4.318-1.311-4.755-3.213-.591-7.017,4.035-9.073,10.9a25.142,25.142,0,0,0-1.182,6.066,27.984,27.984,0,0,1-5.269,3.958,6.677,6.677,0,0,1-2.056.437c-2.647,0-1.825-2.493-1.825-2.493a8.4,8.4,0,0,1,3.6-4.113c.951-.36,1.028-1.542-.077-1.7-1.234-.077-3.521.72-5.269-1.234a2.1,2.1,0,0,0,.154-.668,1.5,1.5,0,0,0-1.542-1.542,1.565,1.565,0,0,0-1.542,1.619,1.439,1.439,0,0,0,.668,1.234,14.19,14.19,0,0,1-1.825,3.727c-1.9,2.416-5.269,5.115-9,5.192-1.311,0-3.444-.077-3.881-1.465,4.55-1.542,7.763-4.987,7.685-6.889a2.59,2.59,0,0,0-2.7-2.7c-3.881-.154-7.248,4.472-7.171,8.636v.283a13.181,13.181,0,0,1-7.094,1.465,10.184,10.184,0,0,0,2.7-6.452c0-1.619-.72-2.776-1.9-3.084a3.744,3.744,0,0,0-3.136.437,11.262,11.262,0,0,0-1.388,1.105c.077-.231.591-1.234.283-1.234-.437,0-1.388-.077-2.185-.077-.283,0-.72-.077-.591.231a2.063,2.063,0,0,1,.231,1.619c-1.9,2.262-7.685,8.045-10.77,7.763-1.182-.077-1.234-.591-1.182-1.465a13,13,0,0,1,1.465-3.213c.437-.72.874-1.542,1.311-2.262.231-.36.283-.591.514-.951.591-.951,1.234-.951,1.234-1.311,0-.077-.154-.077-.154-.077l-2.262-.154c-.437,0-.668.437-.874.951a2.555,2.555,0,0,0-2.339-1.465c-4.035-.077-8.431,3.881-8.559,8.045-.077,1.979,1.465,3.367,3.65,3.367a5.151,5.151,0,0,0,3.958-1.9l.077.437a2.918,2.918,0,0,0,2.647,1.542c3.6.231,6.375-2.493,8.636-4.472-2.056,3.6-4.832,8.482-6.811,11.567l2.853-.668,4.755-7.968a3.071,3.071,0,0,0,2.776,1.748,5.8,5.8,0,0,0,3.444-.8,14.657,14.657,0,0,0,9.3-1.388c.8,1.465,2.647,2.056,4.318,2.185h0a12.039,12.039,0,0,0,3.6-.283c.077,0,.231-.077.591-.154a13.788,13.788,0,0,0,7.171-5.064,22.08,22.08,0,0,0,1.542-2.133,17.686,17.686,0,0,0,1.234-2.185,6.234,6.234,0,0,0,3.29,1.182c-.231,0-6.452,5.346-2.776,7.968a5.444,5.444,0,0,0,5.064.154,30.16,30.16,0,0,0,5.5-3.65c.154,2.133,1.7,4.035,4.832,4.035a13.734,13.734,0,0,0,6.734-2.185c.951,1.748,3.213,2.262,5.064,2.262,3.444,0,6.3-2.339,8.2-3.958.077,2.853,2.776,4.035,5.86,3.881h0a13.878,13.878,0,0,0,8.945-4.035c-.077,2.57,1.825,4.113,4.986,4.035a13.4,13.4,0,0,0,10.9-5.86ZM59.67,267.758c-1.234,1.9-5.192,2.853-4.987-.36.154-2.416,3.65-6.015,6.143-5.938a2.008,2.008,0,0,1,1.234.437h0a.871.871,0,0,1,.437,1.028Zm15.448,2.365a1.865,1.865,0,0,1-1.9-2.133c0-.077,1.619-3.136,2.262-4.113a4.649,4.649,0,0,1,4.035-2.262c1.105.154,1.182.8,1.182,1.748C80.7,265.779,78.2,270.122,75.117,270.122Zm14.368-4.344a7.321,7.321,0,0,1,3.213-4.55,2.818,2.818,0,0,1,1.542-.437,1.019,1.019,0,0,1,1.105,1.028c0,.72-.8,1.619-1.234,2.133a11.074,11.074,0,0,1-4.755,3.136A4.741,4.741,0,0,1,89.486,265.779Zm34.777-13.237c1.234-1.7,2.185-2.647,3.136-2.262.36.154.437.591.36,1.028-.514,3.213-5.192,11.053-8.045,12.8C119.508,264.262,120.3,258.093,124.263,252.541Zm6.22,13.237c.231-2.056.8-4.164,2.57-4.987a2.529,2.529,0,0,1,1.619-.437,1.085,1.085,0,0,1,1.028,1.182,4.386,4.386,0,0,1-1.619,2.853,9.371,9.371,0,0,1-3.521,2.185Zm16.4,4.267a2.773,2.773,0,0,1-3.007-2.493,1.028,1.028,0,0,0,.72-.283,1.509,1.509,0,0,0,.154-1.979c.437-.514,1.311-1.619,1.311-1.619,1.619-1.619,3.136-2.776,4.113-2.7C148.99,263.594,150.095,269.891,146.882,270.045Zm14.42.129a2.334,2.334,0,0,1-2.647-2.339,1.011,1.011,0,0,0,.951-.283,1.393,1.393,0,0,0-.077-2.133c1.748-1.979,3.8-3.958,5.346-4.472C163.435,263.362,164.669,270.174,161.3,270.174Z" transform="translate(0 0)" fill="#737efa"/>
      <path id="Trazado_191" data-name="Trazado 191" d="M607.444,295.9a3.149,3.149,0,0,1-2.185.951,2.816,2.816,0,0,1-2.185-.951,3.122,3.122,0,0,1-.874-2.262,2.71,2.71,0,0,1,.951-2.185,3.013,3.013,0,0,1,2.185-.951,2.71,2.71,0,0,1,2.185.951,3.149,3.149,0,0,1,.951,2.185A3.263,3.263,0,0,1,607.444,295.9Zm-4.113-4.164a2.669,2.669,0,1,0,1.9-.8A2.564,2.564,0,0,0,603.331,291.734Zm1.851.206a2.8,2.8,0,0,1,.951.154.906.906,0,0,1,.154,1.542,1.013,1.013,0,0,1-.514.154.936.936,0,0,1,.591.36.775.775,0,0,1,.231.514v.514a.777.777,0,0,0,.077.231h-.591v-.437a.916.916,0,0,0-.283-.8,1.419,1.419,0,0,0-.668-.154h-.514v1.388h-.591v-3.444C604,291.939,605.182,291.939,605.182,291.939Zm.643.514c-.231-.231-1.234-.154-1.234-.154v1.234h.591c.283,0,.951-.077.951-.591A1.423,1.423,0,0,0,605.824,292.453Z" transform="translate(-427.764 -31.353)" fill="#737efa"/>
    </g>
  </g>
</svg>
