<svg xmlns="http://www.w3.org/2000/svg" xmlns:xlink="http://www.w3.org/1999/xlink" width="24" height="24" viewBox="0 0 24 24">
  <defs>
    <clipPath id="clip-passwrod-ico-surveyhoney">
      <rect width="24" height="24"/>
    </clipPath>
  </defs>
  <g id="passwrod-ico-surveyhoney" clip-path="url(#clip-passwrod-ico-surveyhoney)">
    <path id="Trazado_366" data-name="Trazado 366" d="M60.811,55.36a4.887,4.887,0,0,0-1.618.177C57,53.672,51.219,48.749,50.777,48.29a.873.873,0,0,0-.649-.29,1.444,1.444,0,0,0-.922.415c-.3.286-1.428,1.506-1.211,1.731.649.666.822.8,1.09,1.073.4.411,1.224-.043,1.558.1a.638.638,0,0,1,.45.541,8.084,8.084,0,0,1-.13,1.025,1.082,1.082,0,0,0,.4.822.91.91,0,0,0,.675.376c.389.009.9-.554,1.315-.134s-.268,1.025-.216,1.471a1.634,1.634,0,0,0,.935,1.043c.264.056.943-.506,1.328-.42a.9.9,0,0,1,.476.493c.043.2-.3,1.082-.255,1.281a3.042,3.042,0,0,0,.45.753,4.873,4.873,0,0,0-.407,2.064,5.157,5.157,0,1,0,10.306,0A5.185,5.185,0,0,0,60.811,55.36Zm1,7.87A1.385,1.385,0,1,1,63.2,61.845,1.383,1.383,0,0,1,61.815,63.23Z" transform="translate(-44.968 -45)" fill="#6a687d"/>
  </g>
</svg>
