<svg xmlns="http://www.w3.org/2000/svg" xmlns:xlink="http://www.w3.org/1999/xlink" width="49" height="49" viewBox="0 0 49 49">
  <defs>
    <clipPath id="clip-show-passwrod-ico-surveyhoney_1">
      <rect width="49" height="49"/>
    </clipPath>
  </defs>
  <g id="show-passwrod-ico-surveyhoney_1" data-name="show-passwrod-ico-surveyhoney – 1" clip-path="url(#clip-show-passwrod-ico-surveyhoney_1)">
    <path id="Unión_6" data-name="Unión 6" d="M-3186.654-261.888a1.341,1.341,0,0,1,.009-1.807c6.429-7.014,11.806-11.306,18.625-11.306,8.117,0,14.266,5.92,18.71,11.306a1.331,1.331,0,0,1-.042,1.756c-4.36,4.775-10.492,11.365-18.668,11.365C-3176.3-250.574-3181.15-255.807-3186.654-261.888Zm18.295-8.524a7.65,7.65,0,0,0-7.269,7.269,7.636,7.636,0,0,0,7.981,7.981,7.651,7.651,0,0,0,7.269-7.269,7.636,7.636,0,0,0-7.627-7.989Q-3168.182-270.42-3168.36-270.412Zm-.056,13.036a5.449,5.449,0,0,1-5-5,5.433,5.433,0,0,1,5.411-5.844c.093,0,.178.008.263.008a3.979,3.979,0,0,0-.263,1.433,3.938,3.938,0,0,0,3.876,3.986,3.761,3.761,0,0,0,1.544-.331c0,.11.008.221.008.331A5.433,5.433,0,0,1-3168-257.36C-3168.137-257.36-3168.276-257.365-3168.416-257.376Z" transform="translate(3193 287)" fill="#6a687d" stroke="rgba(0,0,0,0)" stroke-width="1"/>
  </g>
</svg>
