<svg xmlns="http://www.w3.org/2000/svg" xmlns:xlink="http://www.w3.org/1999/xlink" width="32" height="32" viewBox="0 0 32 32">
  <defs>
    <clipPath id="clip-star-ico-surveyhoney">
      <rect width="32" height="32"/>
    </clipPath>
  </defs>
  <g id="star-ico-surveyhoney" clip-path="url(#clip-star-ico-surveyhoney)">
    <path id="Trazado_309" data-name="Trazado 309" d="M1536.159,103.5a36.06,36.06,0,0,1,8.079,1.145.378.378,0,0,1,.2.609,36.061,36.061,0,0,1-5.862,5.675.377.377,0,0,0-.135.413,36.04,36.04,0,0,1,1.407,8.037.378.378,0,0,1-.518.377,36.045,36.045,0,0,1-7.209-3.822.378.378,0,0,0-.435,0,36.041,36.041,0,0,1-7.209,3.822.378.378,0,0,1-.519-.377,36.054,36.054,0,0,1,1.407-8.037.378.378,0,0,0-.134-.413,36.047,36.047,0,0,1-5.862-5.675.378.378,0,0,1,.2-.609,36.058,36.058,0,0,1,8.079-1.145.377.377,0,0,0,.351-.255,36.045,36.045,0,0,1,3.586-7.329.378.378,0,0,1,.641,0,36.056,36.056,0,0,1,3.586,7.329A.378.378,0,0,0,1536.159,103.5Z" transform="translate(-1515.779 -91.298)" fill="#fff"/>
  </g>
</svg>
