<svg xmlns="http://www.w3.org/2000/svg" xmlns:xlink="http://www.w3.org/1999/xlink" width="32" height="32" viewBox="0 0 32 32">
  <defs>
    <clipPath id="clip-thumbs-half-ico-surveyhoney">
      <rect width="32" height="32"/>
    </clipPath>
  </defs>
  <g id="thumbs-half-ico-surveyhoney" clip-path="url(#clip-thumbs-half-ico-surveyhoney)">
    <path id="Trazado_284" data-name="Trazado 284" d="M1340.284,529.883c-3.1,0-6.719.035-6.8-.044,3.732-8.984-3.818-12.59-4.423-8.154a9.986,9.986,0,0,1-7.1,8.7,1.175,1.175,0,0,0-.825,1.165q0,.084,0,.169v12.558l.114.7c.691,2.211,15.472,2.2,15.472,2.2,1.813.127,4.5-1.025,3.255-4.2a2.579,2.579,0,0,0,.967-3.87,2.692,2.692,0,0,0,1.106-4.008C1345.1,533.018,1343.161,529.883,1340.284,529.883Z" transform="translate(-1311.627 -517.79)" fill="rgba(255,255,255,0.32)"/>
    <path id="Unión_8" data-name="Unión 8" d="M-3253.331-297.331a1.669,1.669,0,0,1-1.665-1.551l-1-15.308a1.669,1.669,0,0,1,1.666-1.777h2.832a1.669,1.669,0,0,1,1.669,1.669V-299a1.669,1.669,0,0,1-1.669,1.669Zm-.418-3.478a1.252,1.252,0,0,0,1.252,1.252,1.252,1.252,0,0,0,1.252-1.252,1.251,1.251,0,0,0-1.252-1.251A1.251,1.251,0,0,0-3253.749-300.809Zm5.424.139-.115-.7V-314.01c0-.058,0-.114,0-.17a1.181,1.181,0,0,1,.83-1.173,9.906,9.906,0,0,0,6.684-6.647v23.223C-3244.516-299.068-3248-299.62-3248.324-300.669Z" transform="translate(3258 327.832)" fill="#fdc14e" stroke="rgba(0,0,0,0)" stroke-width="1"/>
    <line id="Línea_5" data-name="Línea 5" y2="23.222" transform="translate(17.071 5.832)"/>
  </g>
</svg>
