<svg xmlns="http://www.w3.org/2000/svg" xmlns:xlink="http://www.w3.org/1999/xlink" width="198" height="53">
	<use xlink:href="#logo" fill="#F46818" transform="scale(.87)">
        <path id="logo" d="M30.60013,60.54694a5.01194,5.01194,0,0,1-2.062-9.421h0A12.75348,12.75348,0,0,0,33.999,33.763h0a7.07314,7.07314,0,0,1-.34082-5.035c.05811-.142.80811-1.793-.5249-2.309a30.81286,30.81286,0,0,0-10.37109-1.559,29.19966,29.19966,0,0,0-10.37012,1.559c-1.32007.564-.583,2.167-.52588,2.309a7.0789,7.0789,0,0,1-.33984,5.035h0a12.75406,12.75406,0,0,0,5.46,17.363h0a5.01351,5.01351,0,1,1-5.012,8.679h0a22.7566,22.7566,0,0,1-8.62427-31.925,73.52033,73.52033,0,0,0,8.3999-19.25,7.92567,7.92567,0,0,0-.262-4.963,2.68609,2.68609,0,0,1,4.60009-2.656l1.00489,1.258a1.39987,1.39987,0,0,0,1.29.519,32.50021,32.50021,0,0,1,4.46411-.318,31.69841,31.69841,0,0,1,4.46.322,1.39986,1.39986,0,0,0,1.28808-.516l1.011-1.266a2.68609,2.68609,0,0,1,4.6001,2.656l-.1001.266a7.91349,7.91349,0,0,0-.2561,4.988,73.37478,73.37478,0,0,0,8.314,18.952,22.76946,22.76946,0,0,1-8.60791,31.936h0a4.99206,4.99206,0,0,1-2.64111.751Q30.75283,60.55695,30.60013,60.54694Zm-12.8-47.43c-.574,2.745,3.6709,4.875,5.052,4.875s5.627-2.13,5.053-4.875c-.84595-4.042-3.438-6.639-5.053-6.639S18.637,9.075,17.792,13.11694Zm192.928,32.138,4.55908-8.305-6.186-11.3h4.821l3.65893,7.027,3.572-7.027h4.70507l-10.427,19.6Zm-81.63208,0,4.55908-8.305-6.186-11.3h4.821l3.65893,7.027,3.572-7.027h4.70507l-10.427,19.6Zm-103.9751-4.1c.023-2.044,1.771-3.943-.158-10.652a.947.947,0,0,0-.927-.683H23.804a1.564,1.564,0,0,0-1.5,1.225c-.80909,3.645.46289,4.394.46289,6.129,0,1.364-2.33912,1.073-2.31812-.558.03589-2.792,1.61011-5.065-.085-6.482-1.38208-1.154-2.16992.534-3.06909.644-1.166.143.31592-1.717-3.26709-2.111a.67289.67289,0,0,1-.635-.625c0-.989,3.80908-1.7,9.374-1.7s9.551.713,9.551,1.7c0,.546-.8501,1.035-3.02,1.363a1.26705,1.26705,0,0,0-.564.234c-3.83691,2.871-.647,9.949-1.32593,12.658-.17407.693-.53295.991-.916.991-.66773.005-1.3916-.869-1.37964-2.133Zm172.13208-3.973a6.957,6.957,0,0,1-1.94605-4.995,7.37244,7.37244,0,0,1,1.9751-5.11,7.66554,7.66554,0,0,1,10.10718.088,7.3863,7.3863,0,0,1,1.83008,5.256v.436h-9.6709a3.53727,3.53727,0,0,0,.78394,2.207,2.81009,2.81009,0,0,0,2.14892.814,3.44023,3.44023,0,0,0,1.68506-.378,2.53428,2.53428,0,0,0,.8999-1.075l3.95.407a5.78843,5.78843,0,0,1-2.5,3.252,7.69229,7.69229,0,0,1-4.10009.959,6.70612,6.70612,0,0,1-5.17212-1.861Zm3.165-8.218a2.90049,2.90049,0,0,0-.72608,1.394H205.356a3.28692,3.28692,0,0,0-.842-1.51,3.08217,3.08217,0,0,0-4.104.116Zm-34.5,7.986a6.94215,6.94215,0,0,1,0-9.64,8.7155,8.7155,0,0,1,11.32715,0,6.94218,6.94218,0,0,1,0,9.64,8.72647,8.72647,0,0,1-11.33521,0Zm3.311-7.259a3.58375,3.58375,0,0,0,0,4.878,3.22075,3.22075,0,0,0,2.38208.93,3.17475,3.17475,0,0,0,2.324-.93,3.58372,3.58372,0,0,0,0-4.878,3.45192,3.45192,0,0,0-4.71411,0Zm-53.376,7.492a6.95693,6.95693,0,0,1-1.946-4.995,7.37024,7.37024,0,0,1,1.97608-5.11,7.66425,7.66425,0,0,1,10.1062.088,7.38628,7.38628,0,0,1,1.83008,5.256v.436h-9.6709a3.53785,3.53785,0,0,0,.78491,2.207,2.805,2.805,0,0,0,2.14795.814,3.4411,3.4411,0,0,0,1.68506-.378,2.53473,2.53473,0,0,0,.8999-1.075l3.949.407a5.78846,5.78846,0,0,1-2.5,3.252,7.69252,7.69252,0,0,1-4.095.959,6.70724,6.70724,0,0,1-5.17529-1.862Zm3.165-8.218a2.89979,2.89979,0,0,0-.7251,1.394h5.66308a3.29194,3.29194,0,0,0-.842-1.51,3.08356,3.08356,0,0,0-4.104.115ZM75.458,37.35692a4.96043,4.96043,0,0,1-1.4231-3.892v-7.811h4.18189v7.143a2.72348,2.72348,0,0,0,.72607,2.091,2.46107,2.46107,0,0,0,1.74194.61,2.59116,2.59116,0,0,0,1.771-.61,2.81659,2.81659,0,0,0,.7-2.091v-7.143H87.3367v7.55a5.2005,5.2005,0,0,1-1.4519,4.153,7.35812,7.35812,0,0,1-5.2,1.684A7.347,7.347,0,0,1,75.45,37.357Zm-14.02588.871a12.33406,12.33406,0,0,1-2.846-2.12l2.324-3.194a11.81193,11.81193,0,0,0,1.8,1.481,4.50023,4.50023,0,0,0,2.43994.7,3.10027,3.10027,0,0,0,2.033-.668,2.00717,2.00717,0,0,0,.7-1.568,1.70774,1.70774,0,0,0-.66895-1.394,9.47115,9.47115,0,0,0-2.26489-1.075l-1.6001-.552a6.52714,6.52714,0,0,1-2.7-1.539,4.758,4.758,0,0,1-1.16089-3.369,5.9501,5.9501,0,0,1,1.68408-4.355,6.239,6.239,0,0,1,4.792-1.772,9.3614,9.3614,0,0,1,5.75,1.917l-2,3.252a4.7213,4.7213,0,0,0-3.25293-1.393,2.4212,2.4212,0,0,0-1.887.668,1.72858,1.72858,0,0,0-.49389,1.22,1.35963,1.35963,0,0,0,.436,1.075,7.77373,7.77373,0,0,0,2.43994,1.1l1.45191.552a7.7749,7.7749,0,0,1,2.64209,1.48,4.82968,4.82968,0,0,1,1.42309,3.6,6.93955,6.93955,0,0,1-1.71289,4.791,7.5058,7.5058,0,0,1-5.489,1.975,8.218,8.218,0,0,1-3.84766-.812Zm128.24194.377v-6.649a3.58936,3.58936,0,0,0-.7-2.585,2.193,2.193,0,0,0-1.6001-.581,2.27391,2.27391,0,0,0-1.74194.7,3.3157,3.3157,0,0,0-.813,2.469v6.649h-4.18091v-12.951h4.18091v1.539a4.731,4.731,0,0,1,4.009-1.887,5.10013,5.10013,0,0,1,3.717,1.307,5.073,5.073,0,0,1,1.30688,3.8v8.188Zm-32.11792,0v-8.218h-7.7251v8.218h-4.4729v-19.369h4.4729v7.376h7.7251v-7.376h4.4729V38.601Zm-52.273,0-6.46508-12.757-.21412,3.61a3.94376,3.94376,0,0,0-1.887-.465,2.728,2.728,0,0,0-2.09106.871,4.91673,4.91673,0,0,0-1.01709,3.485v5.256H89.427v-12.951h4.18189v2.032a4.6576,4.6576,0,0,1,1.626-1.8,4.00879,4.00879,0,0,1,2.23706-.552,4.18665,4.18665,0,0,1,1.365.2l-.00708.116h4.478l3.281,6.94,3.282-6.94h4.58789l-6.564,12.951Zm-84.40991-27.991c0-.575.887-.79,1.98-.79s1.98.215,1.98.79-.887,1.293-1.98,1.293-1.98926-.717-1.98926-1.293Z"></path>
    </use> 
</svg>